<svg width="52" height="52" viewBox="0 0 52 52" fill="none" xmlns="http://www.w3.org/2000/svg">
<mask id="mask0_2_763" style="mask-type:luminance" maskUnits="userSpaceOnUse" x="0" y="0" width="52" height="52">
<path d="M52 0H0V52H52V0Z" fill="white"/>
</mask>
<g mask="url(#mask0_2_763)">
<path d="M11.3 0H40.7C46.9 0 52 5 52 11.3V40.7C52 46.9 47 52 40.7 52H11.3C5.09999 52 0 47 0 40.7V11.3C0 5 5.09999 0 11.3 0Z" fill="url(#paint0_linear_2_763)"/>
<path fill-rule="evenodd" clip-rule="evenodd" d="M37.1 40.7C37.7 41.8 39.2 42.2 40.3 41.5C41.4 40.9 41.8 39.4 41.1 38.3L38.8 34.3H42.2C43.5 34.3 44.5 33.3 44.5 32C44.5 30.7 43.5 29.7 42.2 29.7H36.2L29.5 18.2C28.4 19.7 27.2 21.7 27.6 24.2L37.1 40.7ZM23.3 16.8L20.9 12.7C20.3 11.6 20.6 10.2 21.7 9.50001C22.8 8.90001 24.2 9.2 24.9 10.3L26 12.2L27.1 10.4C27.7 9.3 29.1 8.90001 30.3 9.60001C31.4 10.2 31.8 11.7 31.1 12.8L21.3 29.9H28.8C30.2 30.4 31.3 31.9 31.3 33.4C31.3 33.7 31.2 34.1 31.1 34.6H9.89996C8.59996 34.6 7.59998 33.6 7.59998 32.3C7.59998 31 8.59996 30 9.89996 30H15.9L23.3 16.8ZM14.5 35.2C15.5 35.2 16.3 35.7 17.3 36.6L14.9 40.7C14.3 41.8 12.8 42.2 11.7 41.5C10.6 40.9 10.2 39.4 10.9 38.3L12.6 35.4C13.1 35.3 13.3 35.2 13.6 35.2C13.8 35.2 14 35.2 14.5 35.2Z" fill="white"/>
</g>
<defs>
<linearGradient id="paint0_linear_2_763" x1="26.0016" y1="0.0042" x2="26.0016" y2="51.9674" gradientUnits="userSpaceOnUse">
<stop stop-color="#15C7FA"/>
<stop offset="1" stop-color="#216FF0"/>
</linearGradient>
</defs>
</svg>
