<svg width="52" height="52" viewBox="0 0 52 52" fill="none" xmlns="http://www.w3.org/2000/svg">
<path d="M11.4 0H40.6C46.9 0 52 5.10002 52 11.4V40.6C52 46.9 46.9 52 40.6 52H11.4C5.10002 52 0 46.9 0 40.6V11.4C0.1 5.10002 5.20002 0 11.4 0Z" fill="black"/>
<path d="M4.9375 34V19.4545H11.2443C12.3523 19.4545 13.2827 19.6037 14.0355 19.902C14.7931 20.2003 15.3636 20.6217 15.7472 21.1662C16.1354 21.7107 16.3295 22.3523 16.3295 23.0909C16.3295 23.6259 16.2112 24.1136 15.9744 24.554C15.7424 24.9943 15.4157 25.3636 14.9943 25.6619C14.5729 25.9555 14.0805 26.1591 13.517 26.2727V26.4148C14.142 26.4384 14.7102 26.5971 15.2216 26.8906C15.733 27.1795 16.1402 27.5795 16.4432 28.0909C16.7462 28.5975 16.8977 29.1941 16.8977 29.8807C16.8977 30.6761 16.6894 31.384 16.2727 32.0043C15.8608 32.6245 15.2737 33.1122 14.5114 33.4673C13.7491 33.8224 12.84 34 11.7841 34H4.9375ZM8.88636 30.8466H10.733C11.3958 30.8466 11.893 30.7235 12.2244 30.4773C12.5559 30.2263 12.7216 29.857 12.7216 29.3693C12.7216 29.0284 12.6435 28.7396 12.4872 28.5028C12.331 28.2661 12.1084 28.0862 11.8196 27.9631C11.5355 27.84 11.1922 27.7784 10.7898 27.7784H8.88636V30.8466ZM8.88636 25.3352H10.5057C10.8513 25.3352 11.1567 25.2808 11.4219 25.1719C11.687 25.063 11.893 24.9067 12.0398 24.7031C12.1913 24.4948 12.267 24.2415 12.267 23.9432C12.267 23.4934 12.1061 23.1501 11.7841 22.9134C11.4621 22.6719 11.0549 22.5511 10.5625 22.5511H8.88636V25.3352ZM30.8821 19.4545V34H27.5866L22.331 26.358H22.2457V34H18.2969V19.4545H21.6491L26.8196 27.0682H26.9332V19.4545H30.8821ZM38.7443 19.4545H42.6364V29.4261C42.6316 30.3731 42.3925 31.2064 41.919 31.9261C41.4503 32.6411 40.8016 33.1998 39.973 33.6023C39.1491 34 38.1998 34.1989 37.125 34.1989C36.1922 34.1989 35.34 34.0379 34.5682 33.7159C33.7964 33.3892 33.1809 32.8778 32.7216 32.1818C32.2623 31.4811 32.035 30.572 32.0398 29.4545H35.9886C36.0028 29.8191 36.0644 30.1269 36.1733 30.3778C36.2869 30.6288 36.4432 30.8182 36.642 30.946C36.8456 31.0691 37.0919 31.1307 37.3807 31.1307C37.6742 31.1307 37.9205 31.0668 38.1193 30.9389C38.3229 30.8111 38.4768 30.6217 38.581 30.3707C38.6851 30.1151 38.7396 29.8002 38.7443 29.4261V19.4545ZM46.0117 34.2273C45.4625 34.2273 44.9914 34.0355 44.5984 33.652C44.2101 33.2637 44.0183 32.7926 44.0231 32.2386C44.0183 31.6989 44.2101 31.2372 44.5984 30.8537C44.9914 30.4702 45.4625 30.2784 46.0117 30.2784C46.5326 30.2784 46.9918 30.4702 47.3896 30.8537C47.792 31.2372 47.9956 31.6989 48.0004 32.2386C47.9956 32.608 47.8986 32.9441 47.7092 33.2472C47.5245 33.5455 47.283 33.7846 46.9847 33.9645C46.6864 34.1397 46.3621 34.2273 46.0117 34.2273Z" fill="white"/>
</svg>
