<svg width="53" height="52" viewBox="0 0 53 52" fill="none" xmlns="http://www.w3.org/2000/svg">
<path d="M11.8 0H40.6C47 0 52.2 5.20001 52.2 11.6V40.4C52.2 46.8 47 52 40.6 52H11.8C5.40002 52 0.200012 46.8 0.200012 40.4V11.6C0.200012 5.20001 5.40002 0 11.8 0Z" fill="#D4D4D2"/>
<path d="M16 6.70001H36.5C38.2 6.70001 39.5 8.10001 39.5 9.70001V42.2C39.5 43.9 38.1 45.2 36.5 45.2H16C14.3 45.2 13 43.8 13 42.2V9.70001C12.9 8.10001 14.3 6.70001 16 6.70001Z" fill="#1C1C1C"/>
<path d="M16.9 9.10001H35.6C36.4 9.10001 37.1 9.80001 37.1 10.6V16.7C37.1 17.5 36.4 18.2 35.6 18.2H16.9C16.1 18.2 15.4 17.5 15.4 16.7V10.6C15.4 9.80001 16 9.10001 16.9 9.10001Z" fill="#505050"/>
<path d="M18 26.4C19.436 26.4 20.6 25.2359 20.6 23.8C20.6 22.3641 19.436 21.2 18 21.2C16.5641 21.2 15.4 22.3641 15.4 23.8C15.4 25.2359 16.5641 26.4 18 26.4Z" fill="#C4C4C4"/>
<path d="M18 34.5C19.436 34.5 20.6 33.3359 20.6 31.9C20.6 30.4641 19.436 29.3 18 29.3C16.5641 29.3 15.4 30.4641 15.4 31.9C15.4 33.3359 16.5641 34.5 18 34.5Z" fill="#C4C4C4"/>
<path d="M26.2 26.4C27.6359 26.4 28.8 25.2359 28.8 23.8C28.8 22.3641 27.6359 21.2 26.2 21.2C24.764 21.2 23.6 22.3641 23.6 23.8C23.6 25.2359 24.764 26.4 26.2 26.4Z" fill="#C4C4C4"/>
<path d="M26.2 34.5C27.6359 34.5 28.8 33.3359 28.8 31.9C28.8 30.4641 27.6359 29.3 26.2 29.3C24.764 29.3 23.6 30.4641 23.6 31.9C23.6 33.3359 24.764 34.5 26.2 34.5Z" fill="#C4C4C4"/>
<path d="M34.4 26.4C35.8359 26.4 37 25.2359 37 23.8C37 22.3641 35.8359 21.2 34.4 21.2C32.964 21.2 31.8 22.3641 31.8 23.8C31.8 25.2359 32.964 26.4 34.4 26.4Z" fill="#FF9500"/>
<path d="M34.4 34.5C35.8359 34.5 37 33.3359 37 31.9C37 30.4641 35.8359 29.3 34.4 29.3C32.964 29.3 31.8 30.4641 31.8 31.9C31.8 33.3359 32.964 34.5 34.4 34.5Z" fill="#FF9500"/>
<path d="M34.4 42.6C35.8359 42.6 37 41.436 37 40C37 38.5641 35.8359 37.4 34.4 37.4C32.964 37.4 31.8 38.5641 31.8 40C31.8 41.436 32.964 42.6 34.4 42.6Z" fill="#FF9500"/>
<path d="M18 37.5H26.2C27.7 37.5 28.8 38.7 28.8 40.1C28.8 41.6 27.6 42.7 26.2 42.7H18C16.5 42.7 15.4 41.5 15.4 40.1C15.4 38.6 16.5 37.5 18 37.5Z" fill="#C4C4C4"/>
</svg>
