<svg width="53" height="53" viewBox="0 0 53 53" fill="none" xmlns="http://www.w3.org/2000/svg">
<path d="M12.4 0.399994H40.4C47 0.399994 52.4 5.79999 52.4 12.4V40.4C52.4 47 47 52.4 40.4 52.4H12.4C5.80002 52.4 0.400024 47 0.400024 40.4V12.4C0.400024 5.79999 5.80002 0.399994 12.4 0.399994Z" fill="#202020"/>
<path d="M26.4 49.1C38.9369 49.1 49.1 38.9369 49.1 26.4C49.1 13.8631 38.9369 3.7 26.4 3.7C13.8632 3.7 3.70001 13.8631 3.70001 26.4C3.70001 38.9369 13.8632 49.1 26.4 49.1Z" fill="white"/>
<path d="M24.8 10.4V7.10001L23.8 7.8V7.2L24.8 6.5H25.4V10.4H24.8ZM26.4 10.4V10L27.8 8.60001C28.3 8.10001 28.4 7.90001 28.4 7.60001C28.4 7.20001 28.1 7 27.7 7C27.2 7 26.9 7.3 26.9 7.7H26.3C26.3 7 26.9 6.5 27.7 6.5C28.5 6.5 29 7.00001 29 7.60001C29 8.10001 28.8 8.40001 28.1 9.10001L27.2 10H29.1V10.5H26.4V10.4Z" fill="#262626"/>
<path d="M26.5 46.2C25.7 46.2 25 45.6 25 44.2C25 42.9 25.6 42.1 26.6 42.1C27.3 42.1 27.8 42.5 28 43.1H27.4C27.3 42.8 27 42.6 26.7 42.6C26 42.6 25.7 43.3 25.7 44V44.1C25.9 43.7 26.3 43.5 26.8 43.5C27.6 43.5 28.1 44 28.1 44.8C27.9 45.7 27.3 46.2 26.5 46.2ZM25.6 44.9C25.6 45.4 26 45.7 26.4 45.7C26.9 45.7 27.2 45.3 27.2 44.9C27.2 44.4 26.9 44.1 26.4 44.1C26 44.1 25.6 44.4 25.6 44.9Z" fill="#262626"/>
<path d="M35.5 12.8V9.5L34.5 10.2V9.60001L35.5 8.89999H36.1V12.8H35.5Z" fill="#262626"/>
<path d="M16.4 43.8L18.2 40.4H16.1V39.9H18.8V40.4L17.1 43.8H16.4Z" fill="#262626"/>
<path d="M40.7 19.3V18.9L42.1 17.5C42.6 17 42.7 16.8 42.7 16.5C42.7 16.1 42.4 15.9 42 15.9C41.5 15.9 41.2 16.2 41.2 16.6H40.6C40.6 15.9 41.2 15.4 42 15.4C42.8 15.4 43.3 15.9 43.3 16.5C43.3 17 43.1 17.3 42.4 18L41.5 18.9H43.4V19.4H40.7V19.3Z" fill="#262626"/>
<path d="M10.9 37.4C10 37.4 9.40002 36.9 9.40002 36.3C9.40002 35.8 9.79999 35.4 10.3 35.3C9.89999 35.2 9.59998 34.8 9.59998 34.4C9.59998 33.8 10.2 33.4 10.9 33.4C11.7 33.4 12.2 33.8 12.2 34.4C12.2 34.8 11.9 35.1 11.5 35.3C12 35.4 12.4 35.8 12.4 36.3C12.4 36.9 11.8 37.4 10.9 37.4ZM10.9 35C11.3 35 11.6 34.7 11.6 34.4C11.6 34 11.3 33.8 10.9 33.8C10.5 33.8 10.2 34.1 10.2 34.4C10.1 34.8 10.4 35 10.9 35ZM10.9 36.9C11.4 36.9 11.8 36.6 11.8 36.2C11.8 35.8 11.4 35.5 10.9 35.5C10.4 35.5 10 35.8 10 36.2C10 36.6 10.4 36.9 10.9 36.9Z" fill="#262626"/>
<path d="M44.4 28.4C43.6 28.4 43 27.9 43 27.3H43.6C43.6 27.6 44 27.9 44.5 27.9C45 27.9 45.3 27.6 45.3 27.2C45.3 26.8 45 26.5 44.5 26.5H44V26H44.5C45 26 45.3 25.7 45.3 25.4C45.3 25 45 24.8 44.6 24.8C44.2 24.8 43.9 25 43.8 25.4H43C43.1 24.7 43.6 24.3 44.4 24.3C45.2 24.3 45.7 24.7 45.7 25.3C45.7 25.8 45.4 26.1 44.9 26.2C45.5 26.3 45.9 26.6 45.9 27.2C45.8 27.9 45.2 28.4 44.4 28.4Z" fill="#262626"/>
<path d="M8.40002 24.4C9.20002 24.4 9.90002 25 9.90002 26.4C9.90002 27.7 9.29999 28.5 8.29999 28.5C7.59999 28.5 7.10002 28.1 6.90002 27.5H7.5C7.6 27.8 7.90001 28 8.20001 28C8.90001 28 9.20001 27.3 9.20001 26.6V26.5C9.00001 26.9 8.59998 27.1 8.09998 27.1C7.29998 27.1 6.79999 26.6 6.79999 25.8C6.99999 24.9 7.60002 24.4 8.40002 24.4ZM8.40002 26.5C8.90002 26.5 9.20001 26.2 9.20001 25.7C9.20001 25.2 8.80002 24.9 8.40002 24.9C7.90002 24.9 7.59998 25.3 7.59998 25.7C7.59998 26.2 7.90002 26.5 8.40002 26.5Z" fill="#262626"/>
<path d="M42.2 37.3V36.5H40.2V36L41.9 33.4H42.8V36H43.3V36.5H42.8V37.3H42.2ZM40.8 36H42.2V33.8L40.8 36Z" fill="#262626"/>
<path d="M9.29999 19.3V16L8.29999 16.7V16.1L9.29999 15.4H9.90002V19.3H9.29999ZM12.3 19.4C11.4 19.4 10.8 18.6 10.8 17.4C10.8 16.1 11.4 15.4 12.3 15.4C13.2 15.4 13.8 16.2 13.8 17.4C13.8 18.6 13.3 19.4 12.3 19.4ZM12.3 18.9C12.9 18.9 13.2 18.3 13.2 17.4C13.2 16.5 12.9 15.9 12.3 15.9C11.7 15.9 11.4 16.5 11.4 17.4C11.4 18.3 11.7 18.9 12.3 18.9Z" fill="#262626"/>
<path d="M35.5 43.8C34.7 43.8 34.2 43.3 34.1 42.7H34.7C34.8 43.1 35.1 43.3 35.5 43.3C36 43.3 36.3 43 36.3 42.5C36.3 42 36 41.7 35.5 41.7C35.3 41.7 35 41.8 34.9 41.9C34.8 42 34.8 42 34.7 42.1H34.2L34.4 39.8H36.8V40.3H34.9L34.8 41.5C35 41.2 35.3 41.1 35.7 41.1C36.5 41.1 37 41.6 37 42.4C37 43.3 36.4 43.8 35.5 43.8Z" fill="#262626"/>
<path d="M16 12.8V9.5L15 10.2V9.60001L16 8.89999H16.6V12.8H16ZM18.6 12.8V9.5L17.6 10.2V9.60001L18.6 8.89999H19.2V12.8H18.6Z" fill="#262626"/>
<path d="M26.4 27.2C26.8419 27.2 27.2 26.8418 27.2 26.4C27.2 25.9582 26.8419 25.6 26.4 25.6C25.9582 25.6 25.6 25.9582 25.6 26.4C25.6 26.8418 25.9582 27.2 26.4 27.2Z" stroke="#262626" stroke-width="0.7994"/>
<path d="M41.3 13.1C41.6 13.4 41.6 13.9 41.2 14.2L30 24.3C29.7 24.6 29.2 24.6 28.9 24.2C28.6 23.9 28.6 23.4 29 23.1L40.3 12.9C40.5 12.7 41 12.7 41.3 13.1Z" fill="#262626"/>
<path d="M39.2 14.9C39.3 15.1 39.3 15.3 39.2 15.5L27.6 25.9C27.4 26 27.2 26 27 25.9C26.9 25.7 26.9 25.5 27 25.3L38.6 14.9C38.8 14.7 39.1 14.8 39.2 14.9Z" fill="#262626"/>
<path d="M16.4001 20.6C16.2001 21 16.3 21.5 16.7 21.7L23.7 25.8C24.1 26 24.6 25.9 24.8 25.5C25 25.1 24.9 24.6 24.5 24.4L17.5 20.3C17.1 20.1 16.6001 20.2 16.4001 20.6Z" fill="#262626"/>
<path d="M17.8 21.4C17.7 21.6 17.8 21.8 17.9 21.9L25.2 26.1C25.4 26.2 25.6 26.1 25.7 26C25.8 25.8 25.6999 25.6 25.5999 25.5L18.3 21.3C18.2 21.2 17.9 21.2 17.8 21.4Z" fill="#262626"/>
<path fill-rule="evenodd" clip-rule="evenodd" d="M28.2 23.3C28.4 23.4 28.5 23.7 28.3 23.8L27.1 25.9C27.2 26 27.2 26.2 27.2 26.3C27.2 26.7 26.8 27.1 26.4 27.1L16.6 44.2C16.5 44.4 16.2 44.5 16.1 44.3C15.9 44.2 15.8 43.9 16 43.8L25.8 26.7C25.7 26.6 25.7 26.4 25.7 26.3C25.7 25.9 26.1 25.5 26.5 25.5L27.7 23.4C27.7 23.3 28 23.2 28.2 23.3ZM26.4 26.8C26.6 26.8 26.8 26.6 26.8 26.4C26.8 26.2 26.6 26 26.4 26C26.2 26 26 26.2 26 26.4C26 26.6 26.2 26.8 26.4 26.8Z" fill="#EF8732"/>
</svg>
