<svg width="52" height="52" viewBox="0 0 52 52" fill="none" xmlns="http://www.w3.org/2000/svg">
<path d="M11.4 0H40.6C46.9 0 52 5.10002 52 11.4V40.6C52 46.9 46.9 52 40.6 52H11.4C5.10002 52 0 46.9 0 40.6V11.4C0.1 5.10002 5.20002 0 11.4 0Z" fill="black"/>
<mask id="mask0_3_1043" style="mask-type:luminance" maskUnits="userSpaceOnUse" x="16" y="11" width="21" height="31">
<path d="M36.4 11.3H16.5V41.2H36.4V11.3Z" fill="white"/>
</mask>
<g mask="url(#mask0_3_1043)">
<path d="M26.5 26.2C26.5 24.9 27 23.6 28 22.7C28.9 21.8 30.2 21.2 31.5 21.2C32.8 21.2 34.1 21.7 35 22.7C35.9 23.6 36.5 24.9 36.5 26.2C36.5 27.5 36 28.8 35 29.7C34.1 30.6 32.8 31.2 31.5 31.2C30.2 31.2 28.9 30.7 28 29.7C27 28.8 26.5 27.5 26.5 26.2Z" fill="#1ABCFE"/>
<path d="M16.5 36.2C16.5 34.9 17 33.6 18 32.7C18.9 31.8 20.2 31.2 21.5 31.2H26.5V36.2C26.5 37.5 26 38.8 25 39.7C24.1 40.6 22.8 41.2 21.5 41.2C20.2 41.2 18.9 40.7 18 39.7C17.1 38.8 16.5 37.5 16.5 36.2Z" fill="#0ACF83"/>
<path d="M26.5 11.3V21.3H31.5C32.8 21.3 34.1 20.8 35 19.8C35.9 18.9 36.5 17.6 36.5 16.3C36.5 15 36 13.7 35 12.8C34.1 11.9 32.8 11.3 31.5 11.3H26.5Z" fill="#FF7262"/>
<path d="M16.5 16.3C16.5 17.6 17 18.9 18 19.8C18.9 20.7 20.2 21.3 21.5 21.3H26.5V11.3H21.5C20.2 11.3 18.9 11.8 18 12.8C17.1 13.7 16.5 14.9 16.5 16.3Z" fill="#F24E1E"/>
<path d="M16.5 26.2C16.5 27.5 17 28.8 18 29.7C18.9 30.6 20.2 31.2 21.5 31.2H26.5V21.2H21.5C20.2 21.2 18.9 21.7 18 22.7C17.1 23.6 16.5 24.9 16.5 26.2Z" fill="#A259FF"/>
</g>
</svg>
