<svg width="53" height="53" viewBox="0 0 53 53" fill="none" xmlns="http://www.w3.org/2000/svg">
<path d="M12.1 0.800003H41.1C47.5 0.800003 52.6 5.90001 52.6 12.3V41.3C52.6 47.7 47.5 52.8 41.1 52.8H12.1C5.70001 52.8 0.600006 47.7 0.600006 41.3V12.3C0.600006 6.00001 5.70001 0.800003 12.1 0.800003Z" fill="white"/>
<path d="M22.7 22.1C26.4 26.4 28.5 28.5 33 30.5C33.2 30.6 33.4 30.6 33.5 30.5C38.9 27.7 41.1 25.3 44.4 21C45.8 19.1 46.2 16.5 45.5 14.3L45.4 14C43.7 8.9 37.3 7.3 33.4 11C33.3 11.1 33 11.1 32.9 11C29.8 7.2 23.8 7.9 21.7 12.3L21.4 12.9C20 15.8 20.4 19.5 22.7 22.1Z" fill="url(#paint0_linear_10_5)"/>
<defs>
<linearGradient id="paint0_linear_10_5" x1="33.2421" y1="2.8029" x2="33.2421" y2="30.5913" gradientUnits="userSpaceOnUse">
<stop stop-color="#FF5FA9"/>
<stop offset="1" stop-color="#FF2718"/>
</linearGradient>
</defs>
</svg>
