<svg width="53" height="53" viewBox="0 0 53 53" fill="none" xmlns="http://www.w3.org/2000/svg">
<mask id="mask0_2_58" style="mask-type:luminance" maskUnits="userSpaceOnUse" x="0" y="0" width="53" height="53">
<path d="M11.8 0.800003H40.8C47.2 0.800003 52.3 5.90001 52.3 12.3V41.3C52.3 47.7 47.2 52.8 40.8 52.8H11.8C5.39999 52.8 0.299988 47.7 0.299988 41.3V12.3C0.299988 6.00001 5.49999 0.800003 11.8 0.800003Z" fill="white"/>
</mask>
<g mask="url(#mask0_2_58)">
<mask id="mask1_2_58" style="mask-type:luminance" maskUnits="userSpaceOnUse" x="0" y="0" width="53" height="53">
<path d="M52.3 0.800003H0.299988V52.8H52.3V0.800003Z" fill="white"/>
</mask>
<g mask="url(#mask1_2_58)">
<path d="M52.3 0.800003H0.299988V52.8H52.3V0.800003Z" fill="white"/>
<path d="M52.3 0.800003H0.299988V52.8H52.3V0.800003Z" fill="url(#paint0_linear_2_58)"/>
<path fill-rule="evenodd" clip-rule="evenodd" d="M20.2 12.1C19.4 12.3 18.8 13 18.8 13.8V20.8V32.9V33C18.8 33.9 18.8 35.3 16.2 35.5C13.5 35.6 10.7 37.5 10.7 39.8C10.7 39.9 10.7 40 10.7 40.1C10.7 42.3 12.8 44.1 15.3 44.1C16.1 44.1 16.8 43.9 17.5 43.6C19.2 43.1 20.8 41.7 20.8 38.2V21C20.8 20.6 21.1 20.2 21.5 20.2L35.4 17.3C35.9 17.2 36.4 17.6 36.4 18.1V29.2V29.3C36.4 30.2 36.4 31.6 33.8 31.8C31.1 31.9 28.3 33.8 28.3 36.1C28.3 36.2 28.3 36.3 28.3 36.4C28.3 38.6 30.4 40.4 32.9 40.4C33.7 40.4 34.4 40.2 35.1 39.9C36.8 39.4 38.4 37.9 38.4 34.5V16.7V9.7C38.4 9 37.7 8.4 37 8.6L20.2 12.1Z" fill="white"/>
</g>
</g>
<defs>
<linearGradient id="paint0_linear_2_58" x1="26.2858" y1="0.804203" x2="26.2858" y2="52.7674" gradientUnits="userSpaceOnUse">
<stop stop-color="#FB5976"/>
<stop offset="1" stop-color="#FA243B"/>
</linearGradient>
</defs>
</svg>
