<svg width="52" height="52" viewBox="0 0 52 52" fill="none" xmlns="http://www.w3.org/2000/svg">
<mask id="mask0_2_926" style="mask-type:luminance" maskUnits="userSpaceOnUse" x="0" y="0" width="52" height="52">
<path d="M11.5 0H40.5C46.9 0 52 5.1 52 11.5V40.5C52 46.9 46.9 52 40.5 52H11.5C5.1 52 0 46.9 0 40.5V11.5C0 5.2 5.2 0 11.5 0Z" fill="white"/>
</mask>
<g mask="url(#mask0_2_926)">
<path d="M11.5 0H40.5C46.9 0 52 5.1 52 11.5V40.5C52 46.9 46.9 52 40.5 52H11.5C5.1 52 0 46.9 0 40.5V11.5C0 5.2 5.2 0 11.5 0Z" fill="white"/>
<path d="M11.5 0H40.5C46.9 0 52 5.1 52 11.5V40.5C52 46.9 46.9 52 40.5 52H11.5C5.1 52 0 46.9 0 40.5V11.5C0 5.2 5.2 0 11.5 0Z" fill="white"/>
<path d="M52 13H0V15.9H52V13Z" fill="url(#paint0_linear_2_926)"/>
<path d="M52 0H0V13H52V0Z" fill="url(#paint1_linear_2_926)"/>
<path d="M0.399963 16.3C0.299963 16.3 0.1 16.3 0 16.2V15.1C0.1 15 0.199963 15 0.399963 15C0.799963 15 1 15.3 1 15.6C1 16 0.699963 16.3 0.399963 16.3Z" fill="#C7C6CA"/>
<path d="M2.79999 16.3C3.19999 16.3 3.39996 16 3.39996 15.7C3.39996 15.3 3.09999 15.1 2.79999 15.1C2.39999 15.1 2.20001 15.4 2.20001 15.7C2.20001 16 2.49999 16.3 2.79999 16.3Z" fill="#C7C6CA"/>
<path d="M5.89996 15.7C5.89996 16.1 5.59999 16.3 5.29999 16.3C4.89999 16.3 4.70001 16 4.70001 15.7C4.70001 15.3 4.99999 15.1 5.29999 15.1C5.59999 15 5.89996 15.3 5.89996 15.7Z" fill="#C7C6CA"/>
<path d="M7.70001 16.3C8.10001 16.3 8.29999 16 8.29999 15.7C8.29999 15.3 8.00001 15.1 7.70001 15.1C7.30001 15.1 7.09998 15.4 7.09998 15.7C7.09998 16 7.40001 16.3 7.70001 16.3Z" fill="#C7C6CA"/>
<path d="M10.8 15.7C10.8 16.1 10.5 16.3 10.2 16.3C9.80001 16.3 9.59998 16 9.59998 15.7C9.59998 15.3 9.90001 15.1 10.2 15.1C10.5 15 10.8 15.3 10.8 15.7Z" fill="#C7C6CA"/>
<path d="M12.6 16.3C13 16.3 13.2 16 13.2 15.7C13.2 15.3 12.9 15.1 12.6 15.1C12.2 15.1 12 15.4 12 15.7C12 16 12.3 16.3 12.6 16.3Z" fill="#C7C6CA"/>
<path d="M15.7 15.7C15.7 16.1 15.4 16.3 15.1 16.3C14.7 16.3 14.5 16 14.5 15.7C14.5 15.3 14.8 15.1 15.1 15.1C15.4 15 15.7 15.3 15.7 15.7Z" fill="#C7C6CA"/>
<path d="M17.5 16.3C17.9 16.3 18.1 16 18.1 15.7C18.1 15.3 17.8 15.1 17.5 15.1C17.1 15.1 16.9 15.4 16.9 15.7C16.9 16 17.1 16.3 17.5 16.3Z" fill="#C7C6CA"/>
<path d="M20.6 15.7C20.6 16.1 20.3 16.3 20 16.3C19.6 16.3 19.4 16 19.4 15.7C19.4 15.3 19.7 15.1 20 15.1C20.3 15 20.6 15.3 20.6 15.7Z" fill="#C7C6CA"/>
<path d="M22.3999 16.3C22.7999 16.3 23 16 23 15.7C23 15.3 22.6999 15.1 22.3999 15.1C21.9999 15.1 21.8 15.4 21.8 15.7C21.7 16 21.9999 16.3 22.3999 16.3Z" fill="#C7C6CA"/>
<path d="M25.5 15.7C25.5 16.1 25.2 16.3 24.9 16.3C24.5 16.3 24.3 16 24.3 15.7C24.3 15.3 24.6 15.1 24.9 15.1C25.2 15 25.5 15.3 25.5 15.7Z" fill="#C7C6CA"/>
<path d="M27.3 16.3C27.7 16.3 27.8999 16 27.8999 15.7C27.8999 15.3 27.6 15.1 27.3 15.1C26.9 15.1 26.7 15.4 26.7 15.7C26.6 16 26.9 16.3 27.3 16.3Z" fill="#C7C6CA"/>
<path d="M30.4 15.7C30.4 16.1 30.1 16.3 29.8 16.3C29.4 16.3 29.2 16 29.2 15.7C29.2 15.3 29.5 15.1 29.8 15.1C30.1 15 30.4 15.3 30.4 15.7Z" fill="#C7C6CA"/>
<path d="M32.2 16.3C32.6 16.3 32.8 16 32.8 15.7C32.8 15.3 32.5 15.1 32.2 15.1C31.8 15.1 31.5999 15.4 31.5999 15.7C31.4999 16 31.8 16.3 32.2 16.3Z" fill="#C7C6CA"/>
<path d="M35.3 15.7C35.3 16.1 35 16.3 34.7 16.3C34.4 16.3 34.1 16 34.1 15.7C34.1 15.3 34.4 15.1 34.7 15.1C35 15.1 35.3 15.3 35.3 15.7Z" fill="#C7C6CA"/>
<path d="M37.0999 16.3C37.4999 16.3 37.7 16 37.7 15.7C37.7 15.3 37.3999 15.1 37.0999 15.1C36.6999 15.1 36.5 15.4 36.5 15.7C36.4 16 36.6999 16.3 37.0999 16.3Z" fill="#C7C6CA"/>
<path d="M40.2 15.7C40.2 16.1 39.9 16.3 39.6 16.3C39.2 16.3 39 16 39 15.7C39 15.3 39.3 15.1 39.6 15.1C39.9 15 40.2 15.3 40.2 15.7Z" fill="#C7C6CA"/>
<path d="M42 16.3C42.4 16.3 42.5999 16 42.5999 15.7C42.5999 15.3 42.3 15.1 42 15.1C41.6 15.1 41.3999 15.4 41.3999 15.7C41.2999 16 41.6 16.3 42 16.3Z" fill="#C7C6CA"/>
<path d="M45 15.7C45 16.1 44.7 16.3 44.4 16.3C44 16.3 43.8 16 43.8 15.7C43.8 15.3 44.1 15.1 44.4 15.1C44.8 15 45 15.3 45 15.7Z" fill="#C7C6CA"/>
<path d="M46.8 16.3C47.2 16.3 47.4 16 47.4 15.7C47.4 15.3 47.1 15.1 46.8 15.1C46.4 15.1 46.2 15.4 46.2 15.7C46.2 16 46.5 16.3 46.8 16.3Z" fill="#C7C6CA"/>
<path d="M49.9 15.7C49.9 16.1 49.6 16.3 49.3 16.3C48.9 16.3 48.7 16 48.7 15.7C48.7 15.3 49 15.1 49.3 15.1C49.6 15 49.9 15.3 49.9 15.7Z" fill="#C7C6CA"/>
<path d="M52 15.1V16.3C51.9 16.3 51.8 16.4 51.7 16.4C51.3 16.4 51.1 16.1 51.1 15.8C51.1 15.4 51.4 15.2 51.7 15.2C51.8 15 51.9 15 52 15.1Z" fill="#C7C6CA"/>
<path fill-rule="evenodd" clip-rule="evenodd" d="M52 25.7H0V26.6H52V25.7ZM52 38.7H0V39.6H52V38.7Z" fill="#C8C7CB"/>
</g>
<defs>
<linearGradient id="paint0_linear_2_926" x1="26.007" y1="13.0109" x2="26.007" y2="15.8978" gradientUnits="userSpaceOnUse">
<stop offset="0.0416667" stop-color="#9C9A9B"/>
<stop offset="0.4479" stop-color="#D7D7D7"/>
<stop offset="0.875" stop-color="white"/>
</linearGradient>
<linearGradient id="paint1_linear_2_926" x1="26.007" y1="0.0201" x2="26.007" y2="13.0109" gradientUnits="userSpaceOnUse">
<stop stop-color="#FFDD5F"/>
<stop offset="1" stop-color="#FDCB00"/>
</linearGradient>
</defs>
</svg>
