<svg width="52" height="52" viewBox="0 0 52 52" fill="none" xmlns="http://www.w3.org/2000/svg">
<path d="M11.6 0H40.4C46.8 0 52 5.20001 52 11.6V40.4C52 46.8 46.8 52 40.4 52H11.6C5.20001 52 0 46.8 0 40.4V11.6C0.1 5.20001 5.30001 0 11.6 0Z" fill="url(#paint0_linear_3_1041)"/>
<path d="M9.99998 18.2C7.89998 12.4 11.6 9.90001 14.2 9.10001C14.7 9.00001 15.1 9.20001 15.4 9.60001L20.3 16.6C20.6 17.1 20.6 17.7 20.3 18.1C19.2 19.6 18.8 20.9 18.6 21.9C18.5 22.7 18.8 23.6 19.3 24.2C23.1 29.4 27.3 33.3 29.3 33.4C30.8 33.5 32.6 32.3 33.6 31.6C34 31.3 34.6 31.2 35.1 31.5L42.2 36.2C42.6 36.5 42.8 36.9 42.7 37.4C41.4 43.4 35.8 42.7 33 41.6C20 35.6 12.9 26.1 9.99998 18.2Z" fill="#FEFEFE"/>
<defs>
<linearGradient id="paint0_linear_3_1041" x1="26.0543" y1="0.0095" x2="26.0543" y2="51.9727" gradientUnits="userSpaceOnUse">
<stop stop-color="#5CF777"/>
<stop offset="1" stop-color="#0EBC29"/>
</linearGradient>
</defs>
</svg>
