<svg width="52" height="52" viewBox="0 0 52 52" fill="none" xmlns="http://www.w3.org/2000/svg">
<mask id="mask0_2_176" style="mask-type:luminance" maskUnits="userSpaceOnUse" x="0" y="0" width="52" height="52">
<path d="M11.5 0H40.5C46.9 0 52 5.1 52 11.5V40.5C52 46.9 46.9 52 40.5 52H11.5C5.1 52 0 46.9 0 40.5V11.5C0 5.2 5.1 0 11.5 0Z" fill="white"/>
</mask>
<g mask="url(#mask0_2_176)">
<path d="M52 0H0V52H52V0Z" fill="white"/>
<path d="M25.9 3.5C29.7 3.5 32.8 6.60001 32.8 10.4V17.6C32.8 21.4 29.7 24.5 25.9 24.5C22.1 24.5 19 21.4 19 17.6V10.4C19 6.60001 22.1 3.5 25.9 3.5Z" fill="url(#paint0_linear_2_176)"/>
<path d="M25.9 27.4C29.7 27.4 32.8 30.5 32.8 34.3V41.5C32.8 45.3 29.7 48.4 25.9 48.4C22.1 48.4 19 45.3 19 41.5V34.3C19 30.5 22.1 27.4 25.9 27.4Z" fill="url(#paint1_linear_2_176)"/>
<path d="M3.3999 26C3.3999 22.2 6.49993 19.1 10.2999 19.1H17.4999C21.2999 19.1 24.3999 22.2 24.3999 26C24.3999 29.8 21.2999 32.9 17.4999 32.9H10.2999C6.49993 32.9 3.3999 29.8 3.3999 26Z" fill="url(#paint2_linear_2_176)"/>
<path d="M27.3999 26C27.3999 22.2 30.4999 19.1 34.2999 19.1H41.4999C45.2999 19.1 48.3999 22.2 48.3999 26C48.3999 29.8 45.2999 32.9 41.4999 32.9H34.2999C30.4999 32.9 27.3999 29.8 27.3999 26Z" fill="url(#paint3_linear_2_176)"/>
<path d="M9.99998 10.1C12.7 7.40001 17.1 7.40001 19.8 10.1L24.8999 15.2C27.5999 17.9 27.5999 22.3 24.8999 25C22.1999 27.7 17.8 27.7 15.1 25L9.99998 19.9C7.29998 17.2 7.29998 12.8 9.99998 10.1Z" fill="url(#paint4_linear_2_176)"/>
<path d="M27 27C29.7 24.3 34.1 24.3 36.8 27L41.8999 32.1C44.5999 34.8 44.5999 39.2 41.8999 41.9C39.1999 44.6 34.8 44.6 32.1 41.9L27 36.8C24.3 34.1 24.3 29.7 27 27Z" fill="url(#paint5_linear_2_176)"/>
<path d="M41.8999 10.1C44.5999 12.8 44.5999 17.2 41.8999 19.9L36.8 25C34.1 27.7 29.7 27.7 27 25C24.3 22.3 24.3 17.9 27 15.2L32.1 10.1C34.8 7.40001 39.1999 7.40001 41.8999 10.1Z" fill="url(#paint6_linear_2_176)"/>
<path d="M24.8999 27C27.5999 29.7 27.5999 34.1 24.8999 36.8L19.8 41.9C17.1 44.6 12.7 44.6 9.99998 41.9C7.29998 39.2 7.29998 34.8 9.99998 32.1L15.1 27C17.8 24.3 22.1999 24.3 24.8999 27Z" fill="url(#paint7_linear_2_176)"/>
<g opacity="0.7">
<path d="M24.2999 24.4C21.7999 23.8 19.8 21.8 19.2 19.3C21.7 19.9 23.6999 21.8 24.2999 24.4Z" fill="url(#paint8_linear_2_176)"/>
</g>
<g opacity="0.7">
<path d="M24.2999 27.6C23.6999 30.1 21.7 32.1 19.2 32.7C19.8 30.2 21.7999 28.2 24.2999 27.6Z" fill="url(#paint9_linear_2_176)"/>
</g>
<g opacity="0.7">
<path d="M32.7 19.3C32.1 21.8 30.1 23.8 27.6 24.4C28.2 21.8 30.2 19.9 32.7 19.3Z" fill="url(#paint10_linear_2_176)"/>
</g>
<g opacity="0.7">
<path d="M32.7 32.7C30.2 32.1 28.2 30.1 27.6 27.6C30.1 28.2 32.1 30.2 32.7 32.7Z" fill="url(#paint11_linear_2_176)"/>
</g>
<g opacity="0.7">
<path d="M23.5999 26C21.3999 27.3 18.5999 27.3 16.3999 26C18.5999 24.6 21.3999 24.6 23.5999 26Z" fill="url(#paint12_linear_2_176)"/>
</g>
<g opacity="0.7">
<path d="M25.9 23.7C24.6 21.5 24.6 18.7 25.9 16.5C27.3 18.7 27.3 21.5 25.9 23.7Z" fill="url(#paint13_linear_2_176)"/>
</g>
<g opacity="0.7">
<path d="M35.5001 26C33.3001 27.3 30.5 27.3 28.3 26C30.5 24.6 33.3001 24.6 35.5001 26Z" fill="url(#paint14_linear_2_176)"/>
</g>
<g opacity="0.7">
<path d="M25.9 28.3C27.2 30.5 27.2 33.3 25.9 35.5C24.6 33.3 24.6 30.5 25.9 28.3Z" fill="url(#paint15_linear_2_176)"/>
</g>
</g>
<defs>
<linearGradient id="paint0_linear_2_176" x1="25.9385" y1="3.4737" x2="25.9385" y2="24.5476" gradientUnits="userSpaceOnUse">
<stop stop-color="#F69B35"/>
<stop offset="1" stop-color="#FFE51C"/>
</linearGradient>
<linearGradient id="paint1_linear_2_176" x1="25.9385" y1="27.4348" x2="25.9385" y2="48.5087" gradientUnits="userSpaceOnUse">
<stop stop-color="#897FBB"/>
<stop offset="1" stop-color="#5DAFE5"/>
</linearGradient>
<linearGradient id="paint2_linear_2_176" x1="3.421" y1="25.9911" x2="24.495" y2="25.9911" gradientUnits="userSpaceOnUse">
<stop offset="0.0001" stop-color="#CC8BBD"/>
<stop offset="1" stop-color="#EE585F"/>
</linearGradient>
<linearGradient id="paint3_linear_2_176" x1="27.3821" y1="25.9911" x2="48.4561" y2="25.9911" gradientUnits="userSpaceOnUse">
<stop stop-color="#67C17F"/>
<stop offset="1" stop-color="#C7D942"/>
</linearGradient>
<linearGradient id="paint4_linear_2_176" x1="10.0157" y1="10.075" x2="24.9171" y2="24.9763" gradientUnits="userSpaceOnUse">
<stop stop-color="#F25D69"/>
<stop offset="1" stop-color="#F6933F"/>
</linearGradient>
<linearGradient id="paint5_linear_2_176" x1="26.9588" y1="27.0175" x2="41.8603" y2="41.9189" gradientUnits="userSpaceOnUse">
<stop stop-color="#65B8E5"/>
<stop offset="1" stop-color="#68C181"/>
</linearGradient>
<linearGradient id="paint6_linear_2_176" x1="41.8538" y1="10.0679" x2="26.9524" y2="24.9693" gradientUnits="userSpaceOnUse">
<stop stop-color="#FAE417"/>
<stop offset="1" stop-color="#C9DB41"/>
</linearGradient>
<linearGradient id="paint7_linear_2_176" x1="24.9113" y1="27.0113" x2="10.0099" y2="41.9126" gradientUnits="userSpaceOnUse">
<stop stop-color="#CC8BBD"/>
<stop offset="1" stop-color="#9A90C4"/>
</linearGradient>
<linearGradient id="paint8_linear_2_176" x1="3.42113" y1="21.805" x2="24.4947" y2="21.805" gradientUnits="userSpaceOnUse">
<stop offset="0.0001" stop-color="#CC8BBD"/>
<stop offset="1" stop-color="#EE585F"/>
</linearGradient>
<linearGradient id="paint9_linear_2_176" x1="3.42113" y1="30.1772" x2="24.4947" y2="30.1772" gradientUnits="userSpaceOnUse">
<stop offset="0.0001" stop-color="#CC8BBD"/>
<stop offset="1" stop-color="#EE585F"/>
</linearGradient>
<linearGradient id="paint10_linear_2_176" x1="27.3822" y1="21.805" x2="48.456" y2="21.805" gradientUnits="userSpaceOnUse">
<stop stop-color="#67C17F"/>
<stop offset="1" stop-color="#C7D942"/>
</linearGradient>
<linearGradient id="paint11_linear_2_176" x1="27.3822" y1="30.1772" x2="48.456" y2="30.1772" gradientUnits="userSpaceOnUse">
<stop stop-color="#67C17F"/>
<stop offset="1" stop-color="#C7D942"/>
</linearGradient>
<linearGradient id="paint12_linear_2_176" x1="21.9574" y1="24.0522" x2="7.05611" y2="38.9535" gradientUnits="userSpaceOnUse">
<stop stop-color="#CC8BBD"/>
<stop offset="1" stop-color="#9A90C4"/>
</linearGradient>
<linearGradient id="paint13_linear_2_176" x1="12.9764" y1="7.10868" x2="27.8778" y2="22.0109" gradientUnits="userSpaceOnUse">
<stop stop-color="#F25D69"/>
<stop offset="1" stop-color="#F6933F"/>
</linearGradient>
<linearGradient id="paint14_linear_2_176" x1="44.8209" y1="13.0287" x2="29.9188" y2="27.9308" gradientUnits="userSpaceOnUse">
<stop stop-color="#FAE417"/>
<stop offset="1" stop-color="#C9DB41"/>
</linearGradient>
<linearGradient id="paint15_linear_2_176" x1="27.8774" y1="29.9721" x2="12.9762" y2="44.8735" gradientUnits="userSpaceOnUse">
<stop stop-color="#CC8BBD"/>
<stop offset="1" stop-color="#9A90C4"/>
</linearGradient>
</defs>
</svg>
