<svg width="52" height="52" viewBox="0 0 52 52" fill="none" xmlns="http://www.w3.org/2000/svg">
<path d="M11.6 0H40.4C46.8 0 52 5.20001 52 11.6V40.4C52 46.8 46.8 52 40.4 52H11.6C5.20004 52 0 46.8 0 40.4V11.6C0.1 5.20001 5.20004 0 11.6 0Z" fill="white"/>
<path d="M26 48.7C38.5369 48.7 48.7 38.5368 48.7 26C48.7 13.4631 38.5369 3.29999 26 3.29999C13.4631 3.29999 3.30005 13.4631 3.30005 26C3.30005 38.5368 13.4631 48.7 26 48.7Z" fill="url(#paint0_linear_3_1045)"/>
<path d="M26.3 4.89999H25.7V8.8H26.3V4.89999Z" fill="white"/>
<path d="M26.3 43.2H25.7V47.1H26.3V43.2Z" fill="white"/>
<path d="M22.649 5.20279L22.0581 5.30695L22.7351 9.14767L23.326 9.04352L22.649 5.20279Z" fill="white"/>
<path d="M29.3499 42.9959L28.759 43.1001L29.4361 46.9408L30.0269 46.8366L29.3499 42.9959Z" fill="white"/>
<path d="M19.1056 6.02147L18.5417 6.22668L19.8755 9.89151L20.4394 9.6863L19.1056 6.02147Z" fill="white"/>
<path d="M32.2232 42.1262L31.6594 42.3314L32.9932 45.9962L33.557 45.791L32.2232 42.1262Z" fill="white"/>
<path d="M19.8244 42.096L18.4906 45.7609L19.0544 45.9661L20.3882 42.3012L19.8244 42.096Z" fill="white"/>
<path d="M33.019 5.98902L31.6852 9.65387L32.249 9.85907L33.5828 6.19422L33.019 5.98902Z" fill="white"/>
<path d="M22.7425 42.866L22.0654 46.7067L22.6563 46.8109L23.3333 42.9702L22.7425 42.866Z" fill="white"/>
<path d="M29.3743 5.14455L28.6973 8.98529L29.2881 9.08945L29.9652 5.2487L29.3743 5.14455Z" fill="white"/>
<path d="M15.7103 7.62021L15.1907 7.9202L17.1407 11.2976L17.6602 10.9976L15.7103 7.62021Z" fill="white"/>
<path d="M34.8951 40.8133L34.3755 41.1133L36.3255 44.4907L36.8451 44.1907L34.8951 40.8133Z" fill="white"/>
<path d="M17.1495 40.7772L15.1995 44.1546L15.7191 44.4546L17.6691 41.0772L17.1495 40.7772Z" fill="white"/>
<path d="M36.3621 7.5494L34.4121 10.9268L34.9317 11.2268L36.8817 7.84939L36.3621 7.5494Z" fill="white"/>
<path d="M12.6879 9.64064L12.2283 10.0263L14.7352 13.0137L15.1948 12.628L12.6879 9.64064Z" fill="white"/>
<path d="M37.3854 39.01L36.9258 39.3956L39.4327 42.383L39.8923 41.9974L37.3854 39.01Z" fill="white"/>
<path d="M14.761 39.0056L12.2542 41.993L12.7138 42.3787L15.2207 39.3913L14.761 39.0056Z" fill="white"/>
<path d="M39.3744 9.65598L36.8674 12.6434L37.327 13.0291L39.834 10.0417L39.3744 9.65598Z" fill="white"/>
<path d="M9.99837 12.2337L9.61267 12.6934L12.6001 15.2003L12.9858 14.7407L9.99837 12.2337Z" fill="white"/>
<path d="M39.4239 36.9117L39.0382 37.3713L42.0256 39.8782L42.4113 39.4186L39.4239 36.9117Z" fill="white"/>
<path d="M12.6122 36.8012L9.62476 39.3081L10.0104 39.7677L12.9979 37.2608L12.6122 36.8012Z" fill="white"/>
<path d="M42.0462 12.1801L39.0588 14.687L39.4445 15.1466L42.4319 12.6397L42.0462 12.1801Z" fill="white"/>
<path d="M7.90692 15.2298L7.60693 15.7494L10.9843 17.6994L11.2843 17.1798L7.90692 15.2298Z" fill="white"/>
<path d="M41.1336 34.4421L40.8336 34.9617L44.211 36.9117L44.511 36.3921L41.1336 34.4421Z" fill="white"/>
<path d="M10.9785 34.3452L7.60107 36.2952L7.90108 36.8148L11.2785 34.8648L10.9785 34.3452Z" fill="white"/>
<path d="M44.1719 15.1599L40.7944 17.1099L41.0944 17.6295L44.4719 15.6795L44.1719 15.1599Z" fill="white"/>
<path d="M6.28334 18.4961L6.07812 19.0599L9.74295 20.3937L9.94816 19.8299L6.28334 18.4961Z" fill="white"/>
<path d="M42.3301 31.5617L42.1249 32.1255L45.7897 33.4593L45.9949 32.8955L42.3301 31.5617Z" fill="white"/>
<path d="M9.79102 31.6487L6.12622 32.9825L6.33142 33.5463L9.99622 32.2125L9.79102 31.6487Z" fill="white"/>
<path d="M45.7675 18.4711L42.1027 19.8049L42.3079 20.3687L45.9727 19.0349L45.7675 18.4711Z" fill="white"/>
<path d="M5.22806 22.0683L5.1239 22.6592L8.96463 23.3362L9.06879 22.7454L5.22806 22.0683Z" fill="white"/>
<path d="M43.048 28.7177L42.9438 29.3086L46.7846 29.9856L46.8887 29.3947L43.048 28.7177Z" fill="white"/>
<path d="M8.99687 28.6897L5.15613 29.3667L5.26029 29.9576L9.10103 29.2806L8.99687 28.6897Z" fill="white"/>
<path d="M46.8073 22.0872L42.9666 22.7643L43.0707 23.3551L46.9115 22.6781L46.8073 22.0872Z" fill="white"/>
<path d="M8.80005 25.7H4.90002V26.3H8.80005V25.7Z" fill="white"/>
<path d="M47.2 25.7H43.3V26.3H47.2V25.7Z" fill="white"/>
<path d="M24.499 4.98005L23.9012 5.03235L24.1104 7.42322L24.7082 7.37093L24.499 4.98005Z" fill="white"/>
<path d="M27.9961 44.5775L27.3983 44.6298L27.6075 47.0207L28.2052 46.9684L27.9961 44.5775Z" fill="white"/>
<path d="M27.6016 4.92926L27.3925 7.3201L27.9902 7.37239L28.1994 4.98155L27.6016 4.92926Z" fill="white"/>
<path d="M24.0991 44.5926L23.8899 46.9835L24.4876 47.0358L24.6968 44.6449L24.0991 44.5926Z" fill="white"/>
<path d="M20.8647 5.56439L20.2852 5.71967L20.9063 8.03782L21.4858 7.88255L20.8647 5.56439Z" fill="white"/>
<path d="M31.1562 43.9637L30.5767 44.119L31.1978 46.4371L31.7773 46.2819L31.1562 43.9637Z" fill="white"/>
<path d="M20.886 43.9704L20.2649 46.2886L20.8444 46.4439L21.4656 44.1257L20.886 43.9704Z" fill="white"/>
<path d="M31.2119 5.54693L30.5908 7.86511L31.1704 8.02039L31.7915 5.70221L31.2119 5.54693Z" fill="white"/>
<path d="M17.3306 6.7134L16.7869 6.96695L17.8011 9.14208L18.3449 8.88853L17.3306 6.7134Z" fill="white"/>
<path d="M34.149 42.8151L33.6052 43.0687L34.6195 45.2438L35.1632 44.9903L34.149 42.8151Z" fill="white"/>
<path d="M17.8189 42.8282L16.8047 45.0034L17.3484 45.2569L18.3627 43.0818L17.8189 42.8282Z" fill="white"/>
<path d="M34.6786 6.8082L33.6643 8.98334L34.2081 9.2369L35.2223 7.06176L34.6786 6.8082Z" fill="white"/>
<path d="M14.1932 8.56058L13.7017 8.90472L15.0783 10.8708L15.5698 10.5267L14.1932 8.56058Z" fill="white"/>
<path d="M37.0047 41.171L36.5132 41.5151L37.8898 43.4812L38.3813 43.137L37.0047 41.171Z" fill="white"/>
<path d="M15.0883 41.1453L13.7117 43.1114L14.2032 43.4556L15.5798 41.4895L15.0883 41.1453Z" fill="white"/>
<path d="M37.8872 8.56399L36.5105 10.5301L37.002 10.8743L38.3787 8.90815L37.8872 8.56399Z" fill="white"/>
<path d="M11.3288 10.8311L10.9045 11.2554L12.6016 12.9524L13.0259 12.5282L11.3288 10.8311Z" fill="white"/>
<path d="M39.4148 38.9625L38.9906 39.3867L40.6877 41.0838L41.1119 40.6596L39.4148 38.9625Z" fill="white"/>
<path d="M8.94327 13.6767L8.59912 14.1682L10.5652 15.5448L10.9094 15.0533L8.94327 13.6767Z" fill="white"/>
<path d="M41.5244 36.4747L41.1802 36.9662L43.1463 38.3429L43.4904 37.8513L41.5244 36.4747Z" fill="white"/>
<path d="M10.5474 36.4925L8.5813 37.8692L8.92546 38.3607L10.8916 36.984L10.5474 36.4925Z" fill="white"/>
<path d="M43.1577 13.6806L41.1917 15.0573L41.5358 15.5488L43.5019 14.1721L43.1577 13.6806Z" fill="white"/>
<path d="M7.043 16.8234L6.78943 17.3672L8.96456 18.3814L9.21813 17.8376L7.043 16.8234Z" fill="white"/>
<path d="M43.1051 33.5926L42.8516 34.1363L45.0267 35.1506L45.2802 34.6068L43.1051 33.5926Z" fill="white"/>
<path d="M8.95121 33.6331L6.77612 34.6473L7.02969 35.1911L9.20477 34.1768L8.95121 33.6331Z" fill="white"/>
<path d="M44.9624 16.8567L42.7874 17.8709L43.0409 18.4147L45.216 17.4005L44.9624 16.8567Z" fill="white"/>
<path d="M5.67372 20.268L5.51843 20.8476L7.83659 21.4687L7.99188 20.8891L5.67372 20.268Z" fill="white"/>
<path d="M44.0972 30.5937L43.9419 31.1732L46.26 31.7943L46.4153 31.2148L44.0972 30.5937Z" fill="white"/>
<path d="M7.85194 30.5108L5.53381 31.132L5.6891 31.7115L8.00722 31.0904L7.85194 30.5108Z" fill="white"/>
<path d="M46.2513 20.2193L43.9331 20.8405L44.0884 21.42L46.4066 20.7989L46.2513 20.2193Z" fill="white"/>
<path d="M4.98955 23.873L4.93726 24.4707L7.32813 24.6799L7.38042 24.0822L4.98955 23.873Z" fill="white"/>
<path d="M44.6617 27.276L44.6094 27.8737L47.0002 28.0829L47.0525 27.4852L44.6617 27.276Z" fill="white"/>
<path d="M7.36966 27.2999L4.97876 27.5091L5.03105 28.1068L7.42196 27.8976L7.36966 27.2999Z" fill="white"/>
<path d="M46.9758 23.9026L44.585 24.1118L44.6373 24.7095L47.0281 24.5003L46.9758 23.9026Z" fill="white"/>
<path d="M7.36954 27.2999L4.97864 27.5091L5.03093 28.1068L7.42184 27.8976L7.36954 27.2999Z" fill="white"/>
<path d="M46.9758 23.9026L44.585 24.1117L44.6373 24.7095L47.0281 24.5003L46.9758 23.9026Z" fill="white"/>
<path d="M4.98979 23.8723L4.9375 24.47L7.32837 24.6792L7.38067 24.0815L4.98979 23.8723Z" fill="white"/>
<path d="M44.6609 27.276L44.6086 27.8737L46.9995 28.0829L47.0518 27.4852L44.6609 27.276Z" fill="white"/>
<path d="M41.0001 11.1L27.5001 27.5L24.6001 24.6L41.0001 11.1Z" fill="#FE3C30"/>
<path d="M11.1001 40.9L27.5001 27.4L24.6001 24.5L11.1001 40.9Z" fill="white"/>
<defs>
<linearGradient id="paint0_linear_3_1045" x1="26.0385" y1="3.33269" x2="26.0385" y2="48.6601" gradientUnits="userSpaceOnUse">
<stop stop-color="#1BC9FA"/>
<stop offset="0.7601" stop-color="#1F70F0"/>
</linearGradient>
</defs>
</svg>
