<svg width="52" height="52" viewBox="0 0 52 52" fill="none" xmlns="http://www.w3.org/2000/svg">
<path d="M11.6 0H40.4C46.8 0 52 5.2 52 11.6V40.4C52 46.8 46.8 52 40.4 52H11.6C5.19998 52 0 46.8 0 40.4V11.6C0 5.2 5.19998 0 11.6 0Z" fill="url(#paint0_linear_3_1040)"/>
<path d="M26 48.7C38.5369 48.7 48.7 38.5369 48.7 26C48.7 13.4631 38.5369 3.3 26 3.3C13.4631 3.3 3.29999 13.4631 3.29999 26C3.29999 38.5369 13.4631 48.7 26 48.7Z" fill="#2E2E2F"/>
<path fill-rule="evenodd" clip-rule="evenodd" d="M25.9 12.5C25.9 12.4 26.1 12.4 26.1 12.5L26.5 14.4C26.6 14.4 26.8 14.4 26.9 14.4L27.5 12.5C27.5 12.4 27.6999 12.4 27.6999 12.5L27.8 14.5C27.9 14.5 28.0999 14.5 28.1999 14.6L29 12.8C29.1 12.7 29.1999 12.7 29.1999 12.9L29.1 14.9C29.2 14.9 29.4 15 29.5 15L30.5 13.3C30.6 13.2 30.7999 13.2 30.6999 13.4L30.4 15.3C30.5 15.4 30.6 15.4 30.8 15.5L32 13.9C32.1 13.8 32.2999 13.9 32.1999 14L31.6 15.9C31.7 16 31.8 16 31.9 16.1L33.3 14.7C33.4 14.6 33.6 14.7 33.5 14.8L32.6999 16.6C32.7999 16.7 32.9 16.8 33 16.8L34.5 15.5C34.6 15.4 34.7999 15.5 34.6999 15.7L33.6999 17.4C33.7999 17.5 33.9 17.6 34 17.7L35.6999 16.6C35.7999 16.5 35.9 16.7 35.9 16.8L34.6999 18.4C34.7999 18.5 34.9 18.6 35 18.7L36.8 17.8C36.9 17.7 37 17.9 36.9 18L35.6 19.4C35.7 19.5 35.7 19.6 35.8 19.7L37.6999 19C37.7999 19 37.9 19.1 37.8 19.2L36.3 20.5C36.4 20.6 36.4 20.7 36.5 20.9L38.4 20.5C38.5 20.5 38.6 20.6 38.5 20.7L36.9 21.8C36.9 21.9 37 22 37 22.2L39 22C39.1 22 39.2 22.2 39.1 22.2L37.3 23.1C37.3 23.2 37.4 23.4 37.4 23.5H39.4C39.5 23.5 39.6 23.7 39.4 23.7L37.6 24.4C37.6 24.5 37.6 24.7 37.6 24.8L39.6 25C39.7 25 39.7 25.2 39.6 25.2L37.6999 25.7C37.6999 25.8 37.6999 25.8 37.6999 25.9C37.6999 26 37.6999 26 37.6999 26.1L39.6 26.6C39.7 26.6 39.7 26.8 39.6 26.8L37.6 27C37.6 27.1 37.6 27.3 37.6 27.4L39.4 28.1C39.5 28.1 39.5 28.3 39.4 28.3H37.4C37.4 28.4 37.3 28.6 37.3 28.7L39.1 29.6C39.2 29.7 39.2 29.8 39 29.8L37 29.6C37 29.7 36.9 29.8 36.9 30L38.5 31.1C38.6 31.2 38.5 31.4 38.4 31.3L36.5 30.9C36.4 31 36.4 31.1 36.3 31.3L37.8 32.6C37.9 32.7 37.7999 32.9 37.6999 32.8L35.8 32.1C35.7 32.2 35.7 32.3 35.6 32.4L36.9 33.8C37 33.9 36.9 34.1 36.8 34L35 33.1C34.9 33.2 34.7999 33.3 34.6999 33.4L35.9 35C36 35.1 35.7999 35.3 35.6999 35.2L34 34.1C33.9 34.2 33.7999 34.3 33.6999 34.4L34.6999 36.1C34.7999 36.2 34.6 36.3 34.5 36.3L33 35C32.9 35.1 32.7999 35.2 32.6999 35.2L33.6 37.2C33.7 37.3 33.5 37.4 33.4 37.3L32 35.9C31.9 36 31.7999 36 31.6999 36.1L32.3 38C32.3 38.1 32.2 38.2 32.1 38.1L30.9 36.5C30.8 36.6 30.7 36.6 30.5 36.7L30.8 38.6C30.8 38.7 30.6 38.8 30.6 38.7L29.6 37C29.5 37 29.2999 37.1 29.1999 37.1L29.3 39.1C29.3 39.2 29.1 39.3 29.1 39.2L28.3 37.4C28.2 37.4 28 37.4 27.9 37.5L27.8 39.5C27.8 39.6 27.6 39.7 27.6 39.5L27 37.6C26.9 37.6 26.7 37.6 26.6 37.6L26.1999 39.5C26.1999 39.6 26 39.6 26 39.5L25.6 37.6C25.5 37.6 25.2999 37.6 25.1999 37.6L24.6 39.5C24.6 39.6 24.4 39.6 24.4 39.5L24.3 37.5C24.2 37.5 24 37.5 23.9 37.4L23.1 39.2C23 39.3 22.9 39.3 22.9 39.1L23 37.1C22.9 37.1 22.7 37 22.6 37L21.6 38.7C21.5 38.8 21.3 38.8 21.4 38.6L21.6999 36.7C21.5999 36.6 21.5 36.6 21.3 36.5L20.1 38.1C20 38.2 19.8 38.1 19.9 38L20.5 36.1C20.4 36 20.2999 36 20.1999 35.9L18.8 37.3C18.7 37.4 18.5 37.3 18.6 37.2L19.4 35.4C19.3 35.3 19.2 35.2 19.1 35.2L17.6 36.5C17.5 36.6 17.3 36.5 17.4 36.3L18.4 34.6C18.3 34.5 18.2 34.4 18.1 34.3L16.4 35.4C16.3 35.5 16.1999 35.3 16.1999 35.2L17.4 33.6C17.3 33.5 17.2 33.4 17.1 33.3L15.3 34.2C15.2 34.3 15.0999 34.1 15.1999 34L16.5 32.6C16.4 32.5 16.4 32.4 16.3 32.3L14.4 33C14.3 33 14.2 32.9 14.3 32.8L15.8 31.5C15.7 31.4 15.7 31.3 15.6 31.1L13.6999 31.5C13.5999 31.5 13.5 31.4 13.6 31.3L15.1999 30.2C15.1999 30.1 15.1 30 15.1 29.8L13.1 30C13 30 12.9 29.8 13 29.8L14.8 28.9C14.8 28.8 14.6999 28.6 14.6999 28.5H12.6999C12.5999 28.5 12.4999 28.3 12.6999 28.3L14.5 27.6C14.5 27.5 14.5 27.3 14.5 27.2L12.5 27C12.4 27 12.4 26.8 12.5 26.8L14.4 26.3C14.4 26.2 14.4 26.2 14.4 26.1C14.4 26 14.4 26 14.4 25.9L12.5 25.4C12.4 25.4 12.4 25.2 12.5 25.2L14.5 25C14.5 24.9 14.5 24.7 14.5 24.6L12.6999 23.9C12.5999 23.9 12.5999 23.7 12.6999 23.7H14.6999C14.6999 23.6 14.8 23.4 14.8 23.3L13 22.4C12.9 22.3 12.9 22.2 13.1 22.2L15.1 22.4C15.1 22.3 15.1999 22.2 15.1999 22L13.6 20.9C13.5 20.8 13.5999 20.6 13.6999 20.7L15.6 21.1C15.7 21 15.7 20.9 15.8 20.7L14.3 19.4C14.2 19.3 14.3 19.1 14.4 19.2L16.3 19.9C16.4 19.8 16.4 19.7 16.5 19.6L15.1999 18.2C15.0999 18.1 15.2 17.9 15.3 18L17.1 18.9C17.2 18.8 17.3 18.7 17.4 18.6L16.1999 17C16.0999 16.9 16.3 16.7 16.4 16.8L18.1 17.9C18.2 17.8 18.3 17.7 18.4 17.6L17.4 15.9C17.3 15.8 17.5 15.7 17.6 15.7L19.1 17C19.2 16.9 19.3 16.8 19.4 16.8L18.6 15C18.5 14.9 18.7 14.8 18.8 14.9L20.1999 16.3C20.2999 16.2 20.4 16.2 20.5 16.1L19.9 14.2C19.9 14.1 20 14 20.1 14.1L21.3 15.7C21.4 15.6 21.4999 15.6 21.6999 15.5L21.4 13.6C21.4 13.5 21.6 13.4 21.6 13.5L22.6 15.2C22.7 15.2 22.9 15.1 23 15.1L22.9 13.1C22.9 13 23.1 12.9 23.1 13L23.9 14.8C24 14.8 24.2 14.8 24.3 14.7L24.4 12.7C24.4 12.6 24.6 12.5 24.6 12.7L25.1999 14.6C25.2999 14.6 25.5 14.6 25.6 14.6L25.9 12.5ZM26 35.7C31.4 35.7 35.6999 31.3 35.6999 26C35.6999 20.6 31.3 16.3 26 16.3C20.7 16.3 16.3 20.7 16.3 26C16.3 31.4 20.6 35.7 26 35.7Z" fill="url(#paint1_linear_3_1040)"/>
<path fill-rule="evenodd" clip-rule="evenodd" d="M26.1999 5.2C26.1999 5 25.8999 5 25.8999 5.2L25.3999 8.50001C25.0999 8.50001 24.9 8.50001 24.6 8.50001L23.6999 5.3C23.6999 5.1 23.3999 5.2 23.3999 5.3L23.3 8.6C23 8.6 22.8 8.7 22.5 8.7L21.3 5.6C21.2 5.4 21 5.5 21 5.7L21.3 9.00001C21.1 9.10001 20.8 9.1 20.6 9.2L19 6.3C18.9 6.1 18.6999 6.2 18.6999 6.4L19.3999 9.6C19.1999 9.7 18.8999 9.8 18.6999 9.9L16.8 7.2C16.7 7.1 16.5 7.2 16.5 7.3L17.5 10.4C17.3 10.5 17.1 10.7 16.8 10.8L14.6 8.3C14.5 8.2 14.2999 8.30001 14.3999 8.50001L15.8 11.5C15.6 11.6 15.3999 11.8 15.1999 12L12.6999 9.8C12.5999 9.7 12.4 9.80001 12.5 10L14.1999 12.8C13.9999 13 13.8 13.1 13.6 13.3L10.8999 11.4C10.7999 11.3 10.5999 11.5 10.6999 11.6L12.8 14.2C12.6 14.4 12.5 14.6 12.3 14.8L9.39994 13.2C9.19994 13.1 9.09993 13.3 9.19993 13.4L11.5 15.8C11.4 16 11.2 16.2 11.1 16.4L7.99998 15.2C7.79998 15.1 7.69994 15.3 7.89994 15.5L10.5 17.6C10.4 17.8 10.2999 18.1 10.1999 18.3L6.99998 17.4C6.79998 17.4 6.69994 17.6 6.89994 17.7L9.69993 19.4C9.59993 19.6 9.49994 19.9 9.39994 20.1L6.09995 19.6C5.89995 19.6 5.89998 19.8 5.99998 19.9L8.99998 21.3C8.89998 21.5 8.89996 21.8 8.79996 22.1L5.49998 22C5.29998 22 5.29994 22.2 5.39994 22.3L8.49998 23.4C8.49998 23.7 8.39994 23.9 8.39994 24.2L5.09995 24.5C4.89995 24.5 4.89995 24.8 5.09995 24.8L8.29996 25.5C8.29996 25.6 8.29996 25.8 8.29996 25.9C8.29996 26 8.29996 26.2 8.29996 26.3L5.09995 27C4.89995 27 4.89995 27.3 5.09995 27.3L8.39994 27.6C8.39994 27.9 8.49998 28.1 8.49998 28.4L5.39994 29.5C5.19994 29.6 5.29998 29.8 5.49998 29.8L8.79996 29.7C8.89996 30 8.89998 30.2 8.99998 30.5L5.99998 31.9C5.79998 32 5.89995 32.2 6.09995 32.2L9.39994 31.7C9.49994 31.9 9.59993 32.2 9.69993 32.4L6.89994 34.1C6.79994 34.2 6.89998 34.4 6.99998 34.4L10.1999 33.5C10.2999 33.7 10.4 34 10.5 34.2L7.89994 36.3C7.79994 36.4 7.89998 36.6 7.99998 36.6L11.1 35.4C11.2 35.6 11.4 35.8 11.5 36L9.19993 38.4C9.09993 38.5 9.19994 38.7 9.39994 38.6L12.3 37C12.5 37.2 12.6 37.4 12.8 37.6L10.6999 40.2C10.5999 40.3 10.7999 40.5 10.8999 40.4L13.6 38.5C13.8 38.7 13.9999 38.9 14.1999 39L12.5 41.8C12.4 41.9 12.5999 42.1 12.6999 42L15.1999 39.8C15.3999 40 15.6 40.1 15.8 40.3L14.3999 43.3C14.2999 43.5 14.5 43.6 14.6 43.5L16.8 41C17 41.1 17.2 41.3 17.5 41.4L16.5 44.5C16.4 44.7 16.7 44.8 16.8 44.6L18.6999 41.9C18.8999 42 19.1999 42.1 19.3999 42.2L18.6999 45.4C18.6999 45.6 18.9 45.7 19 45.5L20.6 42.6C20.8 42.7 21.1 42.8 21.3 42.8L21 46.1C21 46.3 21.2 46.3 21.3 46.2L22.5 43.1C22.8 43.1 23 43.2 23.3 43.2L23.3999 46.5C23.3999 46.7 23.5999 46.7 23.6999 46.5L24.6 43.3C24.9 43.3 25.0999 43.3 25.3999 43.3L25.8999 46.6C25.8999 46.8 26.1999 46.8 26.1999 46.6L26.6999 43.3C26.9999 43.3 27.2 43.3 27.5 43.3L28.3999 46.5C28.3999 46.7 28.6999 46.6 28.6999 46.5L28.8 43.2C29.1 43.2 29.3 43.1 29.6 43.1L30.8 46.2C30.9 46.4 31.1 46.3 31.1 46.1L30.8 42.8C31 42.7 31.3 42.7 31.5 42.6L33.1 45.5C33.2 45.7 33.3999 45.6 33.3999 45.4L32.6999 42.2C32.8999 42.1 33.1999 42 33.3999 41.9L35.3 44.6C35.4 44.7 35.6 44.6 35.6 44.5L34.6 41.4C34.8 41.3 35 41.1 35.3 41L37.5 43.5C37.6 43.6 37.7999 43.5 37.6999 43.3L36.3 40.3C36.5 40.2 36.6999 40 36.8999 39.8L39.3999 42C39.4999 42.1 39.7 42 39.6 41.8L37.8999 39C38.0999 38.8 38.3 38.7 38.5 38.5L41.1999 40.4C41.2999 40.5 41.4999 40.3 41.3999 40.2L39.3 37.6C39.5 37.4 39.6 37.2 39.8 37L42.6999 38.6C42.8999 38.7 42.9999 38.5 42.8999 38.4L40.6 36C40.7 35.8 40.9 35.6 41 35.4L44.1 36.6C44.3 36.7 44.3999 36.5 44.1999 36.3L41.6 34.2C41.7 34 41.7999 33.7 41.8999 33.5L45.1 34.4C45.3 34.4 45.3999 34.2 45.1999 34.1L42.3999 32.4C42.4999 32.2 42.5999 31.9 42.6999 31.7L46 32.2C46.2 32.2 46.2 32 46.1 31.9L43.1 30.5C43.2 30.3 43.2 30 43.3 29.7L46.6 29.8C46.8 29.8 46.7999 29.6 46.6999 29.5L43.6 28.4C43.6 28.1 43.6999 27.9 43.6999 27.6L47 27.3C47.2 27.3 47.2 27 47 27L43.8 26.3C43.8 26.2 43.8 26 43.8 25.9C43.8 25.8 43.8 25.6 43.8 25.5L47 24.8C47.2 24.8 47.2 24.5 47 24.5L43.6999 24.2C43.6999 23.9 43.6 23.7 43.6 23.4L46.6999 22.3C46.8999 22.2 46.8 22 46.6 22L43.3 22.1C43.2 21.8 43.2 21.6 43.1 21.3L46.1 19.9C46.3 19.8 46.2 19.6 46 19.6L42.6999 20.1C42.5999 19.9 42.4999 19.6 42.3999 19.4L45.1999 17.7C45.2999 17.6 45.2 17.4 45.1 17.4L41.8999 18.3C41.7999 18.1 41.7 17.8 41.6 17.6L44.1999 15.5C44.2999 15.4 44.2 15.2 44.1 15.2L41 16.4C40.9 16.2 40.7 16 40.6 15.8L42.8999 13.4C42.9999 13.3 42.8999 13.1 42.6999 13.2L39.8 14.8C39.6 14.6 39.5 14.4 39.3 14.2L41.3999 11.6C41.4999 11.5 41.2999 11.3 41.1999 11.4L38.5 13.3C38.3 13.1 38.0999 12.9 37.8999 12.8L39.6 10C39.7 9.90001 39.4999 9.7 39.3999 9.8L36.8999 12C36.6999 11.8 36.5 11.7 36.3 11.5L37.6999 8.50001C37.7999 8.30001 37.6 8.2 37.5 8.3L35.3 10.8C35.1 10.7 34.9 10.5 34.6 10.4L35.6 7.3C35.7 7.1 35.4 7 35.3 7.2L33.3999 9.9C33.1999 9.8 32.8999 9.7 32.6999 9.6L33.3999 6.4C33.3999 6.2 33.2 6.1 33.1 6.3L31.5 9.2C31.3 9.1 31 9.00001 30.8 9.00001L31.1 5.7C31.1 5.5 30.9 5.5 30.8 5.6L29.6 8.7C29.3 8.7 29.1 8.6 28.8 8.6L28.6999 5.3C28.6999 5.1 28.4999 5.1 28.3999 5.3L27.5 8.50001C27.2 8.50001 26.9999 8.50001 26.6999 8.50001L26.1999 5.2ZM15.1 14.9C16.3 13.7 18.3 14.2 19.1 15.6L24.1999 24.2C24.7999 25.1 24.7999 26.3 24.1999 27.2L19 36.1C18.1 37.6 16.1999 38 14.8999 36.8C12.0999 34 10.3999 30.1 10.3999 25.9C10.3999 21.6 12.2 17.7 15.1 14.9ZM28.3999 26.7C27.2999 26.7 26.4 27.3 25.8 28.2L20.5 37.2C19.6 38.7 20.2 40.6 21.8 41.1C23.2 41.5 24.6 41.7 26.1 41.7C33.5 41.7 39.7 36.7 41.5 29.9C41.9 28.2 40.5 26.8 38.8 26.8H28.3999V26.7ZM38.8 24.8C40.5 24.8 41.9 23.3 41.5 21.6C39.6 15.1 33.5 10.3 26.3 10.3C24.9 10.3 23.6 10.5 22.3 10.8C20.6 11.2 19.9999 13.2 20.8999 14.7L25.8999 23.3C26.3999 24.2 27.4 24.8 28.5 24.8H38.8ZM26 26.8C26.5 26.8 26.8999 26.4 26.8999 25.9C26.8999 25.4 26.5 25 26 25C25.5 25 25.1 25.4 25.1 25.9C25.2 26.4 25.6 26.8 26 26.8Z" fill="url(#paint2_linear_3_1040)"/>
<defs>
<linearGradient id="paint0_linear_3_1040" x1="26.0227" y1="0.0042" x2="26.0227" y2="51.9674" gradientUnits="userSpaceOnUse">
<stop stop-color="#EAEAEA"/>
<stop offset="1" stop-color="#8F8F93"/>
</linearGradient>
<linearGradient id="paint1_linear_3_1040" x1="26.0227" y1="12.995" x2="26.0227" y2="38.9765" gradientUnits="userSpaceOnUse">
<stop stop-color="#B4B4B8"/>
<stop offset="1" stop-color="#B4B4B8"/>
</linearGradient>
<linearGradient id="paint2_linear_3_1040" x1="25.9072" y1="5.3378" x2="26.1402" y2="46.9683" gradientUnits="userSpaceOnUse">
<stop offset="0.1933" stop-color="#D4D4D8"/>
<stop offset="0.8309" stop-color="#9D9DA1"/>
</linearGradient>
</defs>
</svg>
