<svg width="52" height="52" viewBox="0 0 52 52" fill="none" xmlns="http://www.w3.org/2000/svg">
<mask id="mask0_2_264" style="mask-type:luminance" maskUnits="userSpaceOnUse" x="0" y="0" width="52" height="52">
<path d="M11.5 0H40.5C46.9 0 52 5.1 52 11.5V40.5C52 46.9 46.9 52 40.5 52H11.5C5.1 52 0 46.9 0 40.5V11.5C0 5.2 5.2 0 11.5 0Z" fill="white"/>
</mask>
<g mask="url(#mask0_2_264)">
<path d="M52 0H0V52H52V0Z" fill="#1E1D1F"/>
<path d="M10.1 11.3H41.9C44 11.3 45.7 13 45.7 15.1V37C45.7 39.1 44 40.8 41.9 40.8H10.1C8.00001 40.8 6.3 39.1 6.3 37V15C6.4 13 8.10001 11.3 10.1 11.3Z" fill="#D8D6CC"/>
<path d="M10.4 13H41.6C42.9 13 43.9 14 43.9 15.3V27.1C43.9 28.4 42.9 29.4 41.6 29.4H10.4C9.09999 29.4 8.10001 28.4 8.10001 27.1V15.3C8.10001 14 9.09999 13 10.4 13Z" fill="#3B98C6"/>
<path d="M10.4 16.2H41.6C42.9 16.2 43.9 17.2 43.9 18.5V30.3C43.9 31.6 42.9 32.6 41.6 32.6H10.4C9.09999 32.6 8.10001 31.6 8.10001 30.3V18.5C8.10001 17.2 9.09999 16.2 10.4 16.2Z" fill="#FEB000"/>
<path d="M10.4 19.4H41.6C42.9 19.4 43.9 20.4 43.9 21.7V33.5C43.9 34.8 42.9 35.8 41.6 35.8H10.4C9.09999 35.8 8.10001 34.8 8.10001 33.5V21.7C8.10001 20.4 9.09999 19.4 10.4 19.4Z" fill="#4DBE3B"/>
<path d="M10.4 22.5H41.6C42.9 22.5 43.9 23.5 43.9 24.8V36.6C43.9 37.9 42.9 38.9 41.6 38.9H10.4C9.09999 38.9 8.10001 37.9 8.10001 36.6V24.8C8.10001 23.6 9.09999 22.5 10.4 22.5Z" fill="#F16D5F"/>
<path d="M17.5 26H6.39999V37C6.39999 39.1 8.10001 40.8 10.2 40.8H42C44.1 40.8 45.8 39.1 45.8 37V26H34.7C33.4 26 32.2 26.5 31.2 27.4L29.2 29.4C28.4 30.2 27.3 30.7 26.2 30.8C25.1 30.7 24 30.2 23.2 29.4L21.2 27.4C20 26.5 18.8 26 17.5 26Z" fill="#D8D6CC"/>
</g>
</svg>
