<svg width="53" height="52" viewBox="0 0 53 52" fill="none" xmlns="http://www.w3.org/2000/svg">
<path d="M11.7001 0H40.9001C47.2001 0 52.3 5.10002 52.3 11.4V40.6C52.3 46.9 47.2001 52 40.9001 52H11.7001C5.40007 52 0.300049 46.9 0.300049 40.6V11.4C0.400049 5.10002 5.40007 0 11.7001 0Z" fill="white"/>
<path d="M13.3 13.9H39.3C43.1 13.9 46.2 17 46.2 20.8V31.2C46.2 35 43.1 38.1 39.3 38.1H13.3C9.49999 38.1 6.40002 35 6.40002 31.2V20.8C6.40002 17 9.49999 13.9 13.3 13.9Z" fill="#FE3C30"/>
<path d="M22 29.8V22.2C22 21.6 22.7 21.1 23.2 21.4L30.8 25C31.4 25.3 31.5 26.2 30.8 26.5L23.2 30.5C22.7 30.8 22 30.4 22 29.8Z" fill="white"/>
</svg>
