<svg width="243" height="199" viewBox="0 0 243 199" fill="none" xmlns="http://www.w3.org/2000/svg">
<path d="M23.7852 32.2383H10.6016L10.5312 24.1523H21.2188C23.1406 24.1523 24.6758 23.9414 25.8242 23.5195C26.9727 23.0742 27.8047 22.4297 28.3203 21.5859C28.8594 20.7422 29.1289 19.6875 29.1289 18.4219C29.1289 16.9688 28.8594 15.7969 28.3203 14.9062C27.7812 14.0156 26.9258 13.3711 25.7539 12.9727C24.6055 12.5508 23.1172 12.3398 21.2891 12.3398H15.2422V54H2.90234V2.8125H21.2891C24.4531 2.8125 27.2773 3.10547 29.7617 3.69141C32.2461 4.25391 34.3555 5.12109 36.0898 6.29297C37.8477 7.46484 39.1836 8.94141 40.0977 10.7227C41.0117 12.4805 41.4688 14.5547 41.4688 16.9453C41.4688 19.0312 41.0234 20.9883 40.1328 22.8164C39.2422 24.6445 37.7539 26.1328 35.668 27.2812C33.6055 28.4062 30.7812 28.9922 27.1953 29.0391L23.7852 32.2383ZM23.293 54H7.61328L11.832 44.5078H23.293C24.9805 44.5078 26.3281 44.25 27.3359 43.7344C28.3672 43.1953 29.1055 42.4922 29.5508 41.625C30.0195 40.7344 30.2539 39.75 30.2539 38.6719C30.2539 37.3594 30.0312 36.2227 29.5859 35.2617C29.1641 34.3008 28.4844 33.5625 27.5469 33.0469C26.6094 32.5078 25.3555 32.2383 23.7852 32.2383H13.4141L13.4844 24.1523H25.8945L28.7773 27.3867C32.1992 27.2461 34.9062 27.7266 36.8984 28.8281C38.9141 29.9297 40.3555 31.3828 41.2227 33.1875C42.0898 34.9922 42.5234 36.8789 42.5234 38.8477C42.5234 42.1992 41.7969 45 40.3438 47.25C38.9141 49.5 36.7695 51.1875 33.9102 52.3125C31.0508 53.4375 27.5117 54 23.293 54ZM68.5742 44.4375V28.7578C68.5742 27.6797 68.4219 26.7539 68.1172 25.9805C67.8125 25.207 67.332 24.6094 66.6758 24.1875C66.0195 23.7422 65.1406 23.5195 64.0391 23.5195C63.1484 23.5195 62.3867 23.6719 61.7539 23.9766C61.1211 24.2812 60.6406 24.7383 60.3125 25.3477C59.9844 25.957 59.8203 26.7305 59.8203 27.668H47.9727C47.9727 25.9102 48.3594 24.2812 49.1328 22.7812C49.9297 21.2578 51.0547 19.9336 52.5078 18.8086C53.9844 17.6836 55.7422 16.8164 57.7812 16.207C59.8438 15.5742 62.1406 15.2578 64.6719 15.2578C67.6953 15.2578 70.3906 15.7617 72.7578 16.7695C75.1484 17.7773 77.0352 19.2891 78.418 21.3047C79.8008 23.2969 80.4922 25.8047 80.4922 28.8281V44.4023C80.4922 46.8867 80.6328 48.7734 80.9141 50.0625C81.1953 51.3281 81.5938 52.4414 82.1094 53.4023V54H70.2266C69.6641 52.8281 69.2422 51.3984 68.9609 49.7109C68.7031 48 68.5742 46.2422 68.5742 44.4375ZM70.0156 30.7617L70.0859 37.0898H64.8477C63.7461 37.0898 62.8086 37.2422 62.0352 37.5469C61.2852 37.8516 60.6758 38.2734 60.207 38.8125C59.7617 39.3281 59.4336 39.9141 59.2227 40.5703C59.0352 41.2266 58.9414 41.918 58.9414 42.6445C58.9414 43.3477 59.1055 43.9805 59.4336 44.543C59.7852 45.082 60.2539 45.5039 60.8398 45.8086C61.4258 46.1133 62.082 46.2656 62.8086 46.2656C64.1211 46.2656 65.2344 46.0195 66.1484 45.5273C67.0859 45.0117 67.8008 44.3906 68.293 43.6641C68.7852 42.9375 69.0312 42.2578 69.0312 41.625L71.6328 46.4766C71.1641 47.4141 70.625 48.3633 70.0156 49.3242C69.4297 50.2852 68.6914 51.1758 67.8008 51.9961C66.9336 52.793 65.8672 53.4492 64.6016 53.9648C63.3359 54.457 61.8008 54.7031 59.9961 54.7031C57.6523 54.7031 55.4961 54.2227 53.5273 53.2617C51.582 52.3008 50.0234 50.9648 48.8516 49.2539C47.6797 47.5195 47.0938 45.5273 47.0938 43.2773C47.0938 41.3086 47.4453 39.5508 48.1484 38.0039C48.875 36.457 49.9648 35.1445 51.418 34.0664C52.8711 32.9883 54.7227 32.168 56.9727 31.6055C59.2227 31.043 61.8711 30.7617 64.918 30.7617H70.0156ZM107 43.3125C107 42.6562 106.777 42.0938 106.332 41.625C105.91 41.1328 105.16 40.6875 104.082 40.2891C103.004 39.8672 101.492 39.4453 99.5469 39.0234C97.6953 38.625 95.9492 38.0977 94.3086 37.4414C92.6914 36.7852 91.2734 35.9883 90.0547 35.0508C88.8359 34.1133 87.875 33 87.1719 31.7109C86.4922 30.4219 86.1523 28.9453 86.1523 27.2812C86.1523 25.6641 86.4922 24.1406 87.1719 22.7109C87.875 21.2578 88.8945 19.9805 90.2305 18.8789C91.5898 17.7539 93.2422 16.875 95.1875 16.2422C97.1328 15.5859 99.3477 15.2578 101.832 15.2578C105.254 15.2578 108.207 15.7852 110.691 16.8398C113.176 17.8711 115.086 19.3242 116.422 21.1992C117.781 23.0508 118.461 25.1953 118.461 27.6328H106.613C106.613 26.6719 106.449 25.8516 106.121 25.1719C105.816 24.4922 105.312 23.9766 104.609 23.625C103.906 23.25 102.969 23.0625 101.797 23.0625C100.977 23.0625 100.227 23.2148 99.5469 23.5195C98.8906 23.8242 98.3633 24.2461 97.9648 24.7852C97.5664 25.3242 97.3672 25.957 97.3672 26.6836C97.3672 27.1992 97.4844 27.668 97.7188 28.0898C97.9766 28.4883 98.3633 28.8633 98.8789 29.2148C99.3945 29.543 100.051 29.8477 100.848 30.1289C101.645 30.3867 102.605 30.6211 103.73 30.832C106.285 31.3008 108.676 31.9688 110.902 32.8359C113.129 33.7031 114.934 34.9336 116.316 36.5273C117.723 38.1211 118.426 40.2656 118.426 42.9609C118.426 44.6484 118.039 46.207 117.266 47.6367C116.492 49.043 115.379 50.2852 113.926 51.3633C112.473 52.418 110.727 53.2383 108.688 53.8242C106.648 54.4102 104.352 54.7031 101.797 54.7031C98.1641 54.7031 95.0938 54.0586 92.5859 52.7695C90.0781 51.457 88.1797 49.8164 86.8906 47.8477C85.625 45.8555 84.9922 43.8398 84.9922 41.8008H96.0312C96.0781 42.9727 96.3594 43.9336 96.875 44.6836C97.4141 45.4336 98.1289 45.9844 99.0195 46.3359C99.9102 46.6875 100.941 46.8633 102.113 46.8633C103.191 46.8633 104.082 46.7109 104.785 46.4062C105.512 46.1016 106.062 45.6914 106.438 45.1758C106.812 44.6367 107 44.0156 107 43.3125ZM136.496 15.9609V54H124.613V15.9609H136.496ZM123.91 6.15234C123.91 4.46484 124.52 3.08203 125.738 2.00391C126.957 0.925781 128.539 0.386719 130.484 0.386719C132.43 0.386719 134.012 0.925781 135.23 2.00391C136.449 3.08203 137.059 4.46484 137.059 6.15234C137.059 7.83984 136.449 9.22266 135.23 10.3008C134.012 11.3789 132.43 11.918 130.484 11.918C128.539 11.918 126.957 11.3789 125.738 10.3008C124.52 9.22266 123.91 7.83984 123.91 6.15234ZM159.875 45.5625C160.977 45.5625 161.914 45.3633 162.688 44.9648C163.484 44.543 164.082 43.957 164.48 43.207C164.902 42.4336 165.102 41.5078 165.078 40.4297H176.223C176.246 43.2891 175.543 45.7969 174.113 47.9531C172.707 50.0859 170.785 51.75 168.348 52.9453C165.934 54.1172 163.203 54.7031 160.156 54.7031C157.18 54.7031 154.578 54.2227 152.352 53.2617C150.125 52.2773 148.262 50.918 146.762 49.1836C145.285 47.4258 144.172 45.375 143.422 43.0312C142.695 40.6875 142.332 38.1445 142.332 35.4023V34.5938C142.332 31.8516 142.695 29.3086 143.422 26.9648C144.172 24.5977 145.285 22.5469 146.762 20.8125C148.262 19.0547 150.113 17.6953 152.316 16.7344C154.543 15.75 157.133 15.2578 160.086 15.2578C163.25 15.2578 166.039 15.8555 168.453 17.0508C170.891 18.2461 172.801 19.9805 174.184 22.2539C175.566 24.5273 176.246 27.2812 176.223 30.5156H165.078C165.102 29.3672 164.926 28.3359 164.551 27.4219C164.176 26.5078 163.59 25.7812 162.793 25.2422C162.02 24.6797 161.023 24.3984 159.805 24.3984C158.586 24.3984 157.602 24.668 156.852 25.207C156.102 25.7461 155.527 26.4961 155.129 27.457C154.754 28.3945 154.496 29.4727 154.355 30.6914C154.238 31.9102 154.18 33.2109 154.18 34.5938V35.4023C154.18 36.8086 154.238 38.1328 154.355 39.375C154.496 40.5938 154.766 41.6719 155.164 42.6094C155.562 43.5234 156.137 44.25 156.887 44.7891C157.637 45.3047 158.633 45.5625 159.875 45.5625ZM45.6523 74.8125V126H33.3477L15.2422 94.1484V126H2.90234V74.8125H15.2422L33.3477 106.664V74.8125H45.6523ZM71.3164 126.703C68.2227 126.703 65.457 126.223 63.0195 125.262C60.582 124.277 58.5195 122.93 56.832 121.219C55.168 119.508 53.8906 117.539 53 115.312C52.1328 113.086 51.6992 110.73 51.6992 108.246V106.91C51.6992 104.121 52.0859 101.543 52.8594 99.1758C53.6328 96.7852 54.7812 94.6992 56.3047 92.918C57.8281 91.1367 59.7383 89.7539 62.0352 88.7695C64.332 87.7617 67.0039 87.2578 70.0508 87.2578C72.7461 87.2578 75.1602 87.6914 77.293 88.5586C79.4258 89.4258 81.2305 90.668 82.707 92.2852C84.207 93.9023 85.3438 95.8594 86.1172 98.1562C86.9141 100.453 87.3125 103.031 87.3125 105.891V110.707H56.2344V103.289H75.7461V102.375C75.7695 101.109 75.5469 100.031 75.0781 99.1406C74.6328 98.25 73.9766 97.5703 73.1094 97.1016C72.2422 96.6328 71.1875 96.3984 69.9453 96.3984C68.6562 96.3984 67.5898 96.6797 66.7461 97.2422C65.9258 97.8047 65.2812 98.5781 64.8125 99.5625C64.3672 100.523 64.0508 101.637 63.8633 102.902C63.6758 104.168 63.582 105.504 63.582 106.91V108.246C63.582 109.652 63.7695 110.93 64.1445 112.078C64.543 113.227 65.1055 114.211 65.832 115.031C66.582 115.828 67.4727 116.449 68.5039 116.895C69.5586 117.34 70.7539 117.562 72.0898 117.562C73.707 117.562 75.3008 117.258 76.8711 116.648C78.4414 116.039 79.7891 115.031 80.9141 113.625L86.293 120.023C85.5195 121.125 84.418 122.191 82.9883 123.223C81.582 124.254 79.8945 125.098 77.9258 125.754C75.957 126.387 73.7539 126.703 71.3164 126.703ZM110.551 126.703C107.457 126.703 104.691 126.223 102.254 125.262C99.8164 124.277 97.7539 122.93 96.0664 121.219C94.4023 119.508 93.125 117.539 92.2344 115.312C91.3672 113.086 90.9336 110.73 90.9336 108.246V106.91C90.9336 104.121 91.3203 101.543 92.0938 99.1758C92.8672 96.7852 94.0156 94.6992 95.5391 92.918C97.0625 91.1367 98.9727 89.7539 101.27 88.7695C103.566 87.7617 106.238 87.2578 109.285 87.2578C111.98 87.2578 114.395 87.6914 116.527 88.5586C118.66 89.4258 120.465 90.668 121.941 92.2852C123.441 93.9023 124.578 95.8594 125.352 98.1562C126.148 100.453 126.547 103.031 126.547 105.891V110.707H95.4688V103.289H114.98V102.375C115.004 101.109 114.781 100.031 114.312 99.1406C113.867 98.25 113.211 97.5703 112.344 97.1016C111.477 96.6328 110.422 96.3984 109.18 96.3984C107.891 96.3984 106.824 96.6797 105.98 97.2422C105.16 97.8047 104.516 98.5781 104.047 99.5625C103.602 100.523 103.285 101.637 103.098 102.902C102.91 104.168 102.816 105.504 102.816 106.91V108.246C102.816 109.652 103.004 110.93 103.379 112.078C103.777 113.227 104.34 114.211 105.066 115.031C105.816 115.828 106.707 116.449 107.738 116.895C108.793 117.34 109.988 117.562 111.324 117.562C112.941 117.562 114.535 117.258 116.105 116.648C117.676 116.039 119.023 115.031 120.148 113.625L125.527 120.023C124.754 121.125 123.652 122.191 122.223 123.223C120.816 124.254 119.129 125.098 117.16 125.754C115.191 126.387 112.988 126.703 110.551 126.703ZM153.23 117.281V72H165.148V126H154.461L153.23 117.281ZM129.887 107.438V106.699C129.887 103.816 130.203 101.191 130.836 98.8242C131.469 96.4336 132.406 94.3828 133.648 92.6719C134.891 90.9375 136.438 89.6016 138.289 88.6641C140.141 87.7266 142.273 87.2578 144.688 87.2578C146.844 87.2578 148.73 87.7617 150.348 88.7695C151.965 89.7539 153.348 91.1367 154.496 92.918C155.645 94.6992 156.582 96.7852 157.309 99.1758C158.035 101.543 158.586 104.098 158.961 106.84V107.719C158.586 110.297 158.035 112.734 157.309 115.031C156.582 117.305 155.645 119.32 154.496 121.078C153.348 122.836 151.953 124.219 150.312 125.227C148.695 126.211 146.797 126.703 144.617 126.703C142.203 126.703 140.07 126.223 138.219 125.262C136.391 124.301 134.855 122.953 133.613 121.219C132.395 119.484 131.469 117.445 130.836 115.102C130.203 112.758 129.887 110.203 129.887 107.438ZM141.734 106.699V107.438C141.734 108.867 141.828 110.191 142.016 111.41C142.203 112.629 142.52 113.707 142.965 114.645C143.434 115.559 144.043 116.273 144.793 116.789C145.566 117.305 146.516 117.562 147.641 117.562C149.164 117.562 150.418 117.199 151.402 116.473C152.41 115.746 153.148 114.715 153.617 113.379C154.109 112.043 154.32 110.473 154.25 108.668V105.891C154.297 104.344 154.191 102.984 153.934 101.812C153.676 100.617 153.266 99.6211 152.703 98.8242C152.164 98.0273 151.473 97.4297 150.629 97.0312C149.809 96.6094 148.836 96.3984 147.711 96.3984C146.609 96.3984 145.672 96.6562 144.898 97.1719C144.148 97.6875 143.539 98.4141 143.07 99.3516C142.602 100.266 142.262 101.355 142.051 102.621C141.84 103.863 141.734 105.223 141.734 106.699ZM191.797 115.312C191.797 114.656 191.574 114.094 191.129 113.625C190.707 113.133 189.957 112.688 188.879 112.289C187.801 111.867 186.289 111.445 184.344 111.023C182.492 110.625 180.746 110.098 179.105 109.441C177.488 108.785 176.07 107.988 174.852 107.051C173.633 106.113 172.672 105 171.969 103.711C171.289 102.422 170.949 100.945 170.949 99.2812C170.949 97.6641 171.289 96.1406 171.969 94.7109C172.672 93.2578 173.691 91.9805 175.027 90.8789C176.387 89.7539 178.039 88.875 179.984 88.2422C181.93 87.5859 184.145 87.2578 186.629 87.2578C190.051 87.2578 193.004 87.7852 195.488 88.8398C197.973 89.8711 199.883 91.3242 201.219 93.1992C202.578 95.0508 203.258 97.1953 203.258 99.6328H191.41C191.41 98.6719 191.246 97.8516 190.918 97.1719C190.613 96.4922 190.109 95.9766 189.406 95.625C188.703 95.25 187.766 95.0625 186.594 95.0625C185.773 95.0625 185.023 95.2148 184.344 95.5195C183.688 95.8242 183.16 96.2461 182.762 96.7852C182.363 97.3242 182.164 97.957 182.164 98.6836C182.164 99.1992 182.281 99.668 182.516 100.09C182.773 100.488 183.16 100.863 183.676 101.215C184.191 101.543 184.848 101.848 185.645 102.129C186.441 102.387 187.402 102.621 188.527 102.832C191.082 103.301 193.473 103.969 195.699 104.836C197.926 105.703 199.73 106.934 201.113 108.527C202.52 110.121 203.223 112.266 203.223 114.961C203.223 116.648 202.836 118.207 202.062 119.637C201.289 121.043 200.176 122.285 198.723 123.363C197.27 124.418 195.523 125.238 193.484 125.824C191.445 126.41 189.148 126.703 186.594 126.703C182.961 126.703 179.891 126.059 177.383 124.77C174.875 123.457 172.977 121.816 171.688 119.848C170.422 117.855 169.789 115.84 169.789 113.801H180.828C180.875 114.973 181.156 115.934 181.672 116.684C182.211 117.434 182.926 117.984 183.816 118.336C184.707 118.688 185.738 118.863 186.91 118.863C187.988 118.863 188.879 118.711 189.582 118.406C190.309 118.102 190.859 117.691 191.234 117.176C191.609 116.637 191.797 116.016 191.797 115.312ZM23.2578 181.934V146.812H35.5625V181.934C35.5625 185.355 34.7773 188.32 33.207 190.828C31.6602 193.336 29.5508 195.281 26.8789 196.664C24.2305 198.023 21.2539 198.703 17.9492 198.703C14.5273 198.703 11.4805 198.129 8.80859 196.98C6.16016 195.832 4.07422 194.062 2.55078 191.672C1.05078 189.281 0.300781 186.234 0.300781 182.531H12.6758C12.6758 184.266 12.875 185.625 13.2734 186.609C13.6719 187.57 14.2578 188.25 15.0312 188.648C15.8281 189.023 16.8008 189.211 17.9492 189.211C19.0742 189.211 20.0234 188.93 20.7969 188.367C21.5938 187.781 22.2031 186.949 22.625 185.871C23.0469 184.77 23.2578 183.457 23.2578 181.934ZM41.3633 179.367V178.629C41.3633 175.84 41.7617 173.273 42.5586 170.93C43.3555 168.562 44.5273 166.512 46.0742 164.777C47.6211 163.043 49.5312 161.695 51.8047 160.734C54.0781 159.75 56.7031 159.258 59.6797 159.258C62.6797 159.258 65.3164 159.75 67.5898 160.734C69.8867 161.695 71.8086 163.043 73.3555 164.777C74.9023 166.512 76.0742 168.562 76.8711 170.93C77.668 173.273 78.0664 175.84 78.0664 178.629V179.367C78.0664 182.133 77.668 184.699 76.8711 187.066C76.0742 189.41 74.9023 191.461 73.3555 193.219C71.8086 194.953 69.8984 196.301 67.625 197.262C65.3516 198.223 62.7266 198.703 59.75 198.703C56.7734 198.703 54.1367 198.223 51.8398 197.262C49.543 196.301 47.6211 194.953 46.0742 193.219C44.5273 191.461 43.3555 189.41 42.5586 187.066C41.7617 184.699 41.3633 182.133 41.3633 179.367ZM53.2109 178.629V179.367C53.2109 180.797 53.3164 182.133 53.5273 183.375C53.7383 184.617 54.0898 185.707 54.582 186.645C55.0742 187.559 55.7422 188.273 56.5859 188.789C57.4297 189.305 58.4844 189.562 59.75 189.562C60.9922 189.562 62.0234 189.305 62.8438 188.789C63.6875 188.273 64.3555 187.559 64.8477 186.645C65.3398 185.707 65.6914 184.617 65.9023 183.375C66.1133 182.133 66.2188 180.797 66.2188 179.367V178.629C66.2188 177.246 66.1133 175.945 65.9023 174.727C65.6914 173.484 65.3398 172.395 64.8477 171.457C64.3555 170.496 63.6875 169.746 62.8438 169.207C62 168.668 60.9453 168.398 59.6797 168.398C58.4375 168.398 57.3945 168.668 56.5508 169.207C55.7305 169.746 55.0742 170.496 54.582 171.457C54.0898 172.395 53.7383 173.484 53.5273 174.727C53.3164 175.945 53.2109 177.246 53.2109 178.629ZM105.559 188.754V159.961H117.441V198H106.332L105.559 188.754ZM106.684 181.02L109.777 180.949C109.777 183.504 109.473 185.871 108.863 188.051C108.254 190.207 107.352 192.082 106.156 193.676C104.984 195.27 103.531 196.512 101.797 197.402C100.086 198.27 98.1055 198.703 95.8555 198.703C93.9805 198.703 92.2578 198.445 90.6875 197.93C89.1406 197.391 87.8047 196.559 86.6797 195.434C85.5547 194.285 84.6758 192.82 84.043 191.039C83.4336 189.234 83.1289 187.078 83.1289 184.57V159.961H94.9766V184.641C94.9766 185.484 95.082 186.211 95.293 186.82C95.5039 187.43 95.8086 187.945 96.207 188.367C96.6055 188.766 97.0977 189.07 97.6836 189.281C98.293 189.469 98.9844 189.562 99.7578 189.562C101.539 189.562 102.934 189.188 103.941 188.438C104.949 187.688 105.652 186.668 106.051 185.379C106.473 184.09 106.684 182.637 106.684 181.02ZM135.934 169.383V198H124.086V159.961H135.16L135.934 169.383ZM147.184 159.68L146.973 170.684C146.504 170.637 145.871 170.578 145.074 170.508C144.277 170.438 143.609 170.402 143.07 170.402C141.688 170.402 140.492 170.566 139.484 170.895C138.5 171.199 137.68 171.668 137.023 172.301C136.391 172.91 135.922 173.684 135.617 174.621C135.336 175.559 135.207 176.648 135.23 177.891L133.086 176.484C133.086 173.93 133.332 171.609 133.824 169.523C134.34 167.414 135.066 165.598 136.004 164.074C136.941 162.527 138.078 161.344 139.414 160.523C140.75 159.68 142.25 159.258 143.914 159.258C144.5 159.258 145.074 159.293 145.637 159.363C146.223 159.434 146.738 159.539 147.184 159.68ZM162.898 168.082V198H151.051V159.961H162.16L162.898 168.082ZM161.492 177.68L158.715 177.75C158.715 174.844 159.066 172.254 159.77 169.98C160.473 167.684 161.469 165.738 162.758 164.145C164.047 162.551 165.582 161.344 167.363 160.523C169.168 159.68 171.172 159.258 173.375 159.258C175.133 159.258 176.738 159.516 178.191 160.031C179.668 160.547 180.934 161.379 181.988 162.527C183.066 163.676 183.887 165.199 184.449 167.098C185.035 168.973 185.328 171.293 185.328 174.059V198H173.41V174.023C173.41 172.5 173.199 171.34 172.777 170.543C172.355 169.723 171.746 169.16 170.949 168.855C170.152 168.551 169.18 168.398 168.031 168.398C166.812 168.398 165.781 168.633 164.938 169.102C164.094 169.57 163.414 170.227 162.898 171.07C162.406 171.891 162.043 172.863 161.809 173.988C161.598 175.113 161.492 176.344 161.492 177.68ZM211.66 188.438V172.758C211.66 171.68 211.508 170.754 211.203 169.98C210.898 169.207 210.418 168.609 209.762 168.188C209.105 167.742 208.227 167.52 207.125 167.52C206.234 167.52 205.473 167.672 204.84 167.977C204.207 168.281 203.727 168.738 203.398 169.348C203.07 169.957 202.906 170.73 202.906 171.668H191.059C191.059 169.91 191.445 168.281 192.219 166.781C193.016 165.258 194.141 163.934 195.594 162.809C197.07 161.684 198.828 160.816 200.867 160.207C202.93 159.574 205.227 159.258 207.758 159.258C210.781 159.258 213.477 159.762 215.844 160.77C218.234 161.777 220.121 163.289 221.504 165.305C222.887 167.297 223.578 169.805 223.578 172.828V188.402C223.578 190.887 223.719 192.773 224 194.062C224.281 195.328 224.68 196.441 225.195 197.402V198H213.312C212.75 196.828 212.328 195.398 212.047 193.711C211.789 192 211.66 190.242 211.66 188.438ZM213.102 174.762L213.172 181.09H207.934C206.832 181.09 205.895 181.242 205.121 181.547C204.371 181.852 203.762 182.273 203.293 182.812C202.848 183.328 202.52 183.914 202.309 184.57C202.121 185.227 202.027 185.918 202.027 186.645C202.027 187.348 202.191 187.98 202.52 188.543C202.871 189.082 203.34 189.504 203.926 189.809C204.512 190.113 205.168 190.266 205.895 190.266C207.207 190.266 208.32 190.02 209.234 189.527C210.172 189.012 210.887 188.391 211.379 187.664C211.871 186.938 212.117 186.258 212.117 185.625L214.719 190.477C214.25 191.414 213.711 192.363 213.102 193.324C212.516 194.285 211.777 195.176 210.887 195.996C210.02 196.793 208.953 197.449 207.688 197.965C206.422 198.457 204.887 198.703 203.082 198.703C200.738 198.703 198.582 198.223 196.613 197.262C194.668 196.301 193.109 194.965 191.938 193.254C190.766 191.52 190.18 189.527 190.18 187.277C190.18 185.309 190.531 183.551 191.234 182.004C191.961 180.457 193.051 179.145 194.504 178.066C195.957 176.988 197.809 176.168 200.059 175.605C202.309 175.043 204.957 174.762 208.004 174.762H213.102ZM242.668 144V198H230.785V144H242.668Z" fill="black"/>
</svg>
