<svg width="13" height="12" viewBox="0 0 13 12" fill="none" xmlns="http://www.w3.org/2000/svg">
<g clip-path="url(#clip0_1_3)">
<path d="M0.835548 4.66797C0.835548 4.02344 0.956642 3.41992 1.19883 2.85742C1.44102 2.29102 1.77695 1.79297 2.20664 1.36328C2.63633 0.933594 3.13242 0.597656 3.69492 0.355469C4.26133 0.113281 4.8668 -0.0078125 5.51133 -0.0078125C6.15586 -0.0078125 6.75937 0.113281 7.32187 0.355469C7.88828 0.597656 8.38633 0.933594 8.81602 1.36328C9.2457 1.79297 9.58164 2.29102 9.82383 2.85742C10.066 3.41992 10.1871 4.02344 10.1871 4.66797C10.1871 5.20312 10.1012 5.71094 9.9293 6.19141C9.76133 6.67188 9.52695 7.10742 9.22617 7.49805L12.0914 10.3809C12.1539 10.4434 12.2008 10.5156 12.232 10.5977C12.2672 10.6797 12.2848 10.7676 12.2848 10.8613C12.2848 10.9902 12.2555 11.1074 12.1969 11.2129C12.1422 11.3184 12.0641 11.4004 11.9625 11.459C11.8609 11.5215 11.7437 11.5527 11.6109 11.5527C11.5172 11.5527 11.4273 11.5352 11.3414 11.5C11.2594 11.4688 11.1832 11.4199 11.1129 11.3535L8.23008 8.46484C7.84727 8.73828 7.42539 8.95312 6.96445 9.10938C6.50352 9.26562 6.01914 9.34375 5.51133 9.34375C4.8668 9.34375 4.26133 9.22266 3.69492 8.98047C3.13242 8.73828 2.63633 8.40234 2.20664 7.97266C1.77695 7.54297 1.44102 7.04688 1.19883 6.48438C0.956642 5.91797 0.835548 5.3125 0.835548 4.66797ZM1.8375 4.66797C1.8375 5.17578 1.93125 5.65234 2.11875 6.09766C2.31016 6.53906 2.57383 6.92773 2.90977 7.26367C3.24961 7.59961 3.64023 7.86328 4.08164 8.05469C4.52695 8.24609 5.00352 8.3418 5.51133 8.3418C6.01914 8.3418 6.49375 8.24609 6.93516 8.05469C7.38047 7.86328 7.77109 7.59961 8.10703 7.26367C8.44297 6.92773 8.70664 6.53906 8.89805 6.09766C9.08945 5.65234 9.18516 5.17578 9.18516 4.66797C9.18516 4.16016 9.08945 3.68555 8.89805 3.24414C8.70664 2.79883 8.44297 2.4082 8.10703 2.07227C7.77109 1.73242 7.38047 1.46875 6.93516 1.28125C6.49375 1.08984 6.01914 0.994141 5.51133 0.994141C5.00352 0.994141 4.52695 1.08984 4.08164 1.28125C3.64023 1.46875 3.24961 1.73242 2.90977 2.07227C2.57383 2.4082 2.31016 2.79883 2.11875 3.24414C1.93125 3.68555 1.8375 4.16016 1.8375 4.66797ZM20.057 10.1992C19.4398 10.1992 18.9008 10.0996 18.4398 9.90039C17.9828 9.69727 17.6195 9.41992 17.35 9.06836C17.0844 8.71289 16.9301 8.30664 16.8871 7.84961L16.8813 7.78516H17.9359L17.9418 7.84961C17.9691 8.13086 18.0766 8.375 18.2641 8.58203C18.4555 8.78516 18.7094 8.94336 19.0258 9.05664C19.3461 9.16992 19.7094 9.22656 20.1156 9.22656C20.4984 9.22656 20.8383 9.16602 21.1352 9.04492C21.4359 8.91992 21.6723 8.74805 21.8441 8.5293C22.016 8.31055 22.102 8.05859 22.102 7.77344V7.76758C22.102 7.41602 21.973 7.12109 21.7152 6.88281C21.4574 6.64062 21.0375 6.45508 20.4555 6.32617L19.518 6.12109C18.6703 5.93359 18.0531 5.64453 17.6664 5.25391C17.2836 4.85938 17.0922 4.35547 17.0922 3.74219V3.73633C17.0961 3.26758 17.223 2.85352 17.473 2.49414C17.727 2.13477 18.0766 1.85352 18.5219 1.65039C18.9711 1.44727 19.4867 1.3457 20.0688 1.3457C20.6313 1.3457 21.1293 1.44727 21.5629 1.65039C21.9965 1.84961 22.3402 2.11914 22.5941 2.45898C22.852 2.79883 22.9945 3.17969 23.0219 3.60156L23.0277 3.68359H21.973L21.9613 3.60742C21.9223 3.35742 21.8207 3.13672 21.6566 2.94531C21.4926 2.75 21.2738 2.5957 21.0004 2.48242C20.727 2.36914 20.4066 2.31445 20.0395 2.31836C19.6879 2.31836 19.3715 2.37305 19.0902 2.48242C18.809 2.5918 18.5844 2.75 18.4164 2.95703C18.2523 3.16016 18.1703 3.41016 18.1703 3.70703V3.71289C18.1703 4.04883 18.2953 4.33203 18.5453 4.5625C18.7953 4.79297 19.2074 4.9707 19.7816 5.0957L20.7191 5.30664C21.309 5.43555 21.7836 5.60352 22.143 5.81055C22.5023 6.01758 22.7641 6.27148 22.9281 6.57227C23.0961 6.86914 23.1801 7.2207 23.1801 7.62695V7.63281C23.1801 8.16016 23.0512 8.61523 22.7934 8.99805C22.5355 9.38086 22.1723 9.67773 21.7035 9.88867C21.2348 10.0957 20.6859 10.1992 20.057 10.1992ZM26.9871 10.1113C26.3855 10.1113 25.868 9.97852 25.4344 9.71289C25.0047 9.44727 24.6727 9.07227 24.4383 8.58789C24.2078 8.09961 24.0926 7.52539 24.0926 6.86523V6.85938C24.0926 6.20703 24.2078 5.63477 24.4383 5.14258C24.6727 4.65039 25.0027 4.26562 25.4285 3.98828C25.8543 3.71094 26.3523 3.57227 26.9227 3.57227C27.4969 3.57227 27.9891 3.70508 28.3992 3.9707C28.8133 4.23633 29.1297 4.60742 29.3484 5.08398C29.5711 5.55664 29.6824 6.10742 29.6824 6.73633V7.13477H24.6199V6.32031H29.1609L28.657 7.06445V6.66016C28.657 6.16406 28.5828 5.75586 28.4344 5.43555C28.2859 5.11523 28.0809 4.87695 27.8191 4.7207C27.5574 4.56055 27.2566 4.48047 26.9168 4.48047C26.577 4.48047 26.2723 4.56445 26.0027 4.73242C25.7371 4.89648 25.5262 5.14062 25.3699 5.46484C25.2137 5.78906 25.1355 6.1875 25.1355 6.66016V7.06445C25.1355 7.51367 25.2117 7.89844 25.3641 8.21875C25.5164 8.53516 25.7332 8.7793 26.0145 8.95117C26.2957 9.11914 26.6277 9.20312 27.0105 9.20312C27.2957 9.20312 27.5437 9.16406 27.7547 9.08594C27.9656 9.00781 28.1395 8.9082 28.2762 8.78711C28.4129 8.66602 28.5086 8.54297 28.5633 8.41797L28.5867 8.36523H29.6062L29.5945 8.41211C29.5398 8.62695 29.4422 8.83594 29.3016 9.03906C29.1648 9.23828 28.9871 9.41992 28.7684 9.58398C28.5496 9.74414 28.2898 9.87305 27.9891 9.9707C27.6922 10.0645 27.3582 10.1113 26.9871 10.1113ZM32.5988 10.1113C32.2004 10.1113 31.841 10.0352 31.5207 9.88281C31.2043 9.73047 30.9523 9.51367 30.7648 9.23242C30.5812 8.95117 30.4895 8.61914 30.4895 8.23633V8.22461C30.4895 7.84961 30.5793 7.5293 30.759 7.26367C30.9387 6.99414 31.2004 6.7832 31.5441 6.63086C31.8879 6.47852 32.3039 6.38867 32.7922 6.36133L35.1125 6.2207V7.03516L32.9152 7.17578C32.4348 7.20312 32.0832 7.30273 31.8605 7.47461C31.6418 7.64648 31.5324 7.88867 31.5324 8.20117V8.21289C31.5324 8.5332 31.6535 8.7832 31.8957 8.96289C32.1379 9.13867 32.4426 9.22656 32.8098 9.22656C33.1574 9.22656 33.466 9.1582 33.7355 9.02148C34.0051 8.88086 34.216 8.69141 34.3684 8.45312C34.5246 8.21484 34.6027 7.94531 34.6027 7.64453V5.67578C34.6027 5.28516 34.4836 4.98828 34.2453 4.78516C34.0109 4.57812 33.6574 4.47461 33.1848 4.47461C32.8059 4.47461 32.4953 4.54297 32.2531 4.67969C32.0109 4.8125 31.8488 5.00195 31.7668 5.24805L31.7609 5.26562H30.7414L30.7473 5.23047C30.802 4.89844 30.9387 4.60938 31.1574 4.36328C31.3801 4.11328 31.6672 3.91992 32.0187 3.7832C32.3703 3.64258 32.7707 3.57227 33.2199 3.57227C33.7355 3.57227 34.1711 3.65625 34.5266 3.82422C34.8859 3.99219 35.1574 4.23438 35.341 4.55078C35.5285 4.86328 35.6223 5.23828 35.6223 5.67578V10H34.6027V9.06836H34.509C34.3762 9.29102 34.2141 9.48047 34.0227 9.63672C33.8352 9.79297 33.6223 9.91211 33.384 9.99414C33.1457 10.0723 32.884 10.1113 32.5988 10.1113ZM37.0855 10V3.68359H38.1051V4.62109H38.1988C38.3199 4.28906 38.525 4.03125 38.8141 3.84766C39.1031 3.66406 39.4605 3.57227 39.8863 3.57227C39.984 3.57227 40.0797 3.57812 40.1734 3.58984C40.2711 3.59766 40.3453 3.60547 40.3961 3.61328V4.60352C40.2906 4.58398 40.1871 4.57031 40.0855 4.5625C39.9879 4.55078 39.8824 4.54492 39.7691 4.54492C39.4449 4.54492 39.1578 4.60938 38.9078 4.73828C38.6578 4.86719 38.4605 5.04688 38.316 5.27734C38.1754 5.50781 38.1051 5.77734 38.1051 6.08594V10H37.0855ZM43.6641 10.1113C43.0742 10.1113 42.5625 9.97656 42.1289 9.70703C41.6953 9.4375 41.3594 9.05664 41.1211 8.56445C40.8828 8.07227 40.7637 7.49219 40.7637 6.82422V6.8125C40.7637 6.15625 40.8809 5.58594 41.1152 5.10156C41.3535 4.61719 41.6895 4.24219 42.123 3.97656C42.5566 3.70703 43.0684 3.57227 43.6582 3.57227C44.1699 3.57227 44.6113 3.66211 44.9824 3.8418C45.3535 4.02148 45.6504 4.26367 45.873 4.56836C46.0957 4.86914 46.2383 5.20703 46.3008 5.58203L46.3066 5.61719H45.293L45.2871 5.59961C45.209 5.28711 45.0312 5.02148 44.7539 4.80273C44.4766 4.58398 44.1113 4.47461 43.6582 4.47461C43.2793 4.47461 42.9512 4.57031 42.6738 4.76172C42.3965 4.95312 42.1816 5.22461 42.0293 5.57617C41.8809 5.92383 41.8066 6.33594 41.8066 6.8125V6.82422C41.8066 7.30859 41.8828 7.73047 42.0352 8.08984C42.1875 8.44531 42.4023 8.7207 42.6797 8.91602C42.957 9.11133 43.2832 9.20898 43.6582 9.20898C44.084 9.20898 44.4316 9.11719 44.7012 8.93359C44.9707 8.75 45.1641 8.48242 45.2812 8.13086L45.293 8.0957L46.3008 8.08984L46.2891 8.1543C46.2031 8.5332 46.0508 8.87109 45.832 9.16797C45.6133 9.46094 45.3242 9.69141 44.9648 9.85938C44.6055 10.0273 44.1719 10.1113 43.6641 10.1113ZM47.4535 10V1.17578H48.473V4.63281H48.5668C48.727 4.29688 48.9574 4.03711 49.2582 3.85352C49.559 3.66602 49.9418 3.57227 50.4066 3.57227C50.8793 3.57227 51.2797 3.66406 51.6078 3.84766C51.9359 4.02734 52.1859 4.29102 52.3578 4.63867C52.5297 4.98633 52.6156 5.41016 52.6156 5.91016V10H51.5961V6.15625C51.5961 5.58594 51.475 5.16406 51.2328 4.89062C50.9945 4.61328 50.6234 4.47461 50.1195 4.47461C49.7836 4.47461 49.4926 4.54688 49.2465 4.69141C49.0004 4.83594 48.809 5.04102 48.6723 5.30664C48.5395 5.57227 48.473 5.89062 48.473 6.26172V10H47.4535Z" fill="white"/>
</g>
<defs>
<clipPath id="clip0_1_3">
<rect width="13" height="12" fill="white"/>
</clipPath>
</defs>
</svg>
