<svg width="20" height="13" viewBox="0 0 20 13" fill="none" xmlns="http://www.w3.org/2000/svg">
<path fill-rule="evenodd" clip-rule="evenodd" d="M19.2 1.68236C19.2 1.04932 18.7224 0.536133 18.1333 0.536133H17.0667C16.4776 0.536133 16 1.04932 16 1.68236V11.6163C16 12.2494 16.4776 12.7625 17.0667 12.7625H18.1333C18.7224 12.7625 19.2 12.2494 19.2 11.6163V1.68236ZM11.7659 2.98141H12.8326C13.4217 2.98141 13.8992 3.50691 13.8992 4.15515V11.5888C13.8992 12.237 13.4217 12.7625 12.8326 12.7625H11.7659C11.1768 12.7625 10.6992 12.237 10.6992 11.5888V4.15515C10.6992 3.50691 11.1768 2.98141 11.7659 2.98141ZM7.43411 5.63046H6.36745C5.77834 5.63046 5.30078 6.16265 5.30078 6.81914V11.5739C5.30078 12.2303 5.77834 12.7625 6.36745 12.7625H7.43411C8.02322 12.7625 8.50078 12.2303 8.50078 11.5739V6.81914C8.50078 6.16265 8.02322 5.63046 7.43411 5.63046ZM2.13333 8.07576H1.06667C0.477563 8.07576 0 8.60034 0 9.24745V11.5909C0 12.238 0.477563 12.7625 1.06667 12.7625H2.13333C2.72244 12.7625 3.2 12.238 3.2 11.5909V9.24745C3.2 8.60034 2.72244 8.07576 2.13333 8.07576Z" fill="white"/>
</svg>
